<mxfile host="app.diagrams.net" modified="2022-03-18T05:12:57.441Z" agent="5.0 (X11; Linux x86_64) AppleWebKit/537.36 (KHTML, like Gecko) Chrome/98.0.4758.80 Safari/537.36" etag="ks9Y0kR_CL_BWCTnGyxj" version="16.2.7" type="github">
  <diagram id="dTCkkuFmCW_uLTj4JWRb" name="Page-1">
    <mxGraphModel dx="1350" dy="712" grid="1" gridSize="10" guides="1" tooltips="1" connect="1" arrows="1" fold="1" page="1" pageScale="1" pageWidth="850" pageHeight="1100" math="0" shadow="0">
      <root>
        <mxCell id="0" />
        <mxCell id="1" parent="0" />
        <mxCell id="FGPLI17WFUnC6xqe849k-1" value="" style="edgeStyle=orthogonalEdgeStyle;html=1;align=left;spacingLeft=2;endArrow=block;rounded=0;" edge="1" parent="1" target="FGPLI17WFUnC6xqe849k-25">
          <mxGeometry relative="1" as="geometry">
            <mxPoint x="320" y="393" as="sourcePoint" />
            <Array as="points">
              <mxPoint x="470" y="393" />
              <mxPoint x="470" y="450" />
            </Array>
            <mxPoint x="325" y="413" as="targetPoint" />
          </mxGeometry>
        </mxCell>
        <mxCell id="FGPLI17WFUnC6xqe849k-2" value="newActiveConnection" style="text;html=1;resizable=0;points=[];align=center;verticalAlign=middle;labelBackgroundColor=default;fontColor=#FFFFFF;" vertex="1" connectable="0" parent="FGPLI17WFUnC6xqe849k-1">
          <mxGeometry x="-0.2941" y="2" relative="1" as="geometry">
            <mxPoint x="-31" y="-1" as="offset" />
          </mxGeometry>
        </mxCell>
        <mxCell id="FGPLI17WFUnC6xqe849k-3" value="" style="html=1;points=[];perimeter=orthogonalPerimeter;" vertex="1" parent="1">
          <mxGeometry x="315" y="453" width="10" height="40" as="geometry" />
        </mxCell>
        <mxCell id="FGPLI17WFUnC6xqe849k-4" value="" style="edgeStyle=orthogonalEdgeStyle;html=1;align=left;spacingLeft=2;endArrow=block;rounded=0;" edge="1" parent="1" target="FGPLI17WFUnC6xqe849k-25">
          <mxGeometry relative="1" as="geometry">
            <mxPoint x="320" y="368" as="sourcePoint" />
            <Array as="points">
              <mxPoint x="480" y="368" />
              <mxPoint x="480" y="460" />
            </Array>
            <mxPoint x="325" y="388" as="targetPoint" />
          </mxGeometry>
        </mxCell>
        <mxCell id="FGPLI17WFUnC6xqe849k-5" value="" style="html=1;points=[];perimeter=orthogonalPerimeter;" vertex="1" parent="1">
          <mxGeometry x="315" y="173" width="10" height="40" as="geometry" />
        </mxCell>
        <mxCell id="FGPLI17WFUnC6xqe849k-6" value="" style="edgeStyle=orthogonalEdgeStyle;html=1;align=left;spacingLeft=2;endArrow=block;rounded=0;" edge="1" parent="1" target="FGPLI17WFUnC6xqe849k-25">
          <mxGeometry relative="1" as="geometry">
            <mxPoint x="320" y="153" as="sourcePoint" />
            <Array as="points">
              <mxPoint x="510" y="153" />
              <mxPoint x="510" y="510" />
            </Array>
            <mxPoint x="340" y="173" as="targetPoint" />
          </mxGeometry>
        </mxCell>
        <mxCell id="FGPLI17WFUnC6xqe849k-7" value="onAccept" style="text;html=1;resizable=0;points=[];align=center;verticalAlign=middle;labelBackgroundColor=default;fontColor=#FFFFFF;" vertex="1" connectable="0" parent="FGPLI17WFUnC6xqe849k-6">
          <mxGeometry x="-0.7113" y="1" relative="1" as="geometry">
            <mxPoint x="-27" y="-2" as="offset" />
          </mxGeometry>
        </mxCell>
        <mxCell id="FGPLI17WFUnC6xqe849k-8" value="" style="edgeStyle=orthogonalEdgeStyle;html=1;align=left;spacingLeft=2;endArrow=block;rounded=0;" edge="1" parent="1" target="FGPLI17WFUnC6xqe849k-25">
          <mxGeometry relative="1" as="geometry">
            <mxPoint x="320" y="213" as="sourcePoint" />
            <Array as="points">
              <mxPoint x="320" y="170" />
              <mxPoint x="500" y="170" />
              <mxPoint x="500" y="500" />
            </Array>
            <mxPoint x="350" y="233" as="targetPoint" />
          </mxGeometry>
        </mxCell>
        <mxCell id="FGPLI17WFUnC6xqe849k-9" value="&lt;span style=&quot;text-align: left;&quot;&gt;onAcceptWorker&lt;/span&gt;" style="text;html=1;resizable=0;points=[];align=center;verticalAlign=middle;labelBackgroundColor=default;fontColor=#FFFFFF;" vertex="1" connectable="0" parent="FGPLI17WFUnC6xqe849k-8">
          <mxGeometry x="-0.7196" y="2" relative="1" as="geometry">
            <mxPoint x="22" y="2" as="offset" />
          </mxGeometry>
        </mxCell>
        <mxCell id="FGPLI17WFUnC6xqe849k-10" value="" style="html=1;points=[];perimeter=orthogonalPerimeter;" vertex="1" parent="1">
          <mxGeometry x="757" y="288" width="10" height="40" as="geometry" />
        </mxCell>
        <mxCell id="FGPLI17WFUnC6xqe849k-11" value="onAccept" style="edgeStyle=orthogonalEdgeStyle;html=1;align=left;spacingLeft=2;endArrow=block;rounded=0;entryX=1;entryY=0;" edge="1" parent="1" target="FGPLI17WFUnC6xqe849k-10">
          <mxGeometry relative="1" as="geometry">
            <mxPoint x="762" y="268" as="sourcePoint" />
            <Array as="points">
              <mxPoint x="787" y="268" />
            </Array>
          </mxGeometry>
        </mxCell>
        <mxCell id="FGPLI17WFUnC6xqe849k-12" value="" style="html=1;points=[];perimeter=orthogonalPerimeter;" vertex="1" parent="1">
          <mxGeometry x="570" y="328" width="10" height="40" as="geometry" />
        </mxCell>
        <mxCell id="FGPLI17WFUnC6xqe849k-13" value="" style="html=1;points=[];perimeter=orthogonalPerimeter;" vertex="1" parent="1">
          <mxGeometry x="570" y="252" width="10" height="40" as="geometry" />
        </mxCell>
        <mxCell id="FGPLI17WFUnC6xqe849k-14" value="" style="edgeStyle=orthogonalEdgeStyle;html=1;align=left;spacingLeft=2;endArrow=block;rounded=0;" edge="1" parent="1" target="FGPLI17WFUnC6xqe849k-27">
          <mxGeometry relative="1" as="geometry">
            <mxPoint x="575" y="232" as="sourcePoint" />
            <Array as="points">
              <mxPoint x="730" y="232" />
              <mxPoint x="730" y="480" />
            </Array>
            <mxPoint x="590" y="252" as="targetPoint" />
          </mxGeometry>
        </mxCell>
        <mxCell id="FGPLI17WFUnC6xqe849k-15" value="&lt;span style=&quot;font-size: 11px ; text-align: left&quot;&gt;continueFilterChain&lt;/span&gt;" style="text;html=1;resizable=0;points=[];align=center;verticalAlign=middle;labelBackgroundColor=default;fontColor=#FFFFFF;" vertex="1" connectable="0" parent="FGPLI17WFUnC6xqe849k-14">
          <mxGeometry x="-0.614" y="2" relative="1" as="geometry">
            <mxPoint x="-18" as="offset" />
          </mxGeometry>
        </mxCell>
        <mxCell id="FGPLI17WFUnC6xqe849k-16" value="" style="edgeStyle=orthogonalEdgeStyle;html=1;align=left;spacingLeft=2;endArrow=block;rounded=0;" edge="1" parent="1" target="FGPLI17WFUnC6xqe849k-27">
          <mxGeometry relative="1" as="geometry">
            <mxPoint x="575" y="308" as="sourcePoint" />
            <Array as="points">
              <mxPoint x="720" y="308" />
              <mxPoint x="720" y="470" />
            </Array>
            <mxPoint x="580" y="369" as="targetPoint" />
          </mxGeometry>
        </mxCell>
        <mxCell id="FGPLI17WFUnC6xqe849k-17" value="&lt;span style=&quot;font-size: 11px ; text-align: left&quot;&gt;newConnnection&lt;/span&gt;" style="text;html=1;resizable=0;points=[];align=center;verticalAlign=middle;labelBackgroundColor=default;fontColor=#FFFFFF;" vertex="1" connectable="0" parent="FGPLI17WFUnC6xqe849k-16">
          <mxGeometry x="-0.7514" y="2" relative="1" as="geometry">
            <mxPoint x="32" y="2" as="offset" />
          </mxGeometry>
        </mxCell>
        <mxCell id="FGPLI17WFUnC6xqe849k-18" value="" style="edgeStyle=orthogonalEdgeStyle;html=1;align=left;spacingLeft=2;endArrow=block;rounded=0;" edge="1" parent="1" target="FGPLI17WFUnC6xqe849k-25">
          <mxGeometry relative="1" as="geometry">
            <mxPoint x="320" y="273" as="sourcePoint" />
            <Array as="points">
              <mxPoint x="320" y="190" />
              <mxPoint x="490" y="190" />
              <mxPoint x="490" y="490" />
            </Array>
            <mxPoint x="345" y="330" as="targetPoint" />
          </mxGeometry>
        </mxCell>
        <mxCell id="FGPLI17WFUnC6xqe849k-19" value="&lt;span style=&quot;text-align: left;&quot;&gt;onSocketAccepted&lt;/span&gt;" style="text;html=1;resizable=0;points=[];align=center;verticalAlign=middle;labelBackgroundColor=default;fontColor=#FFFFFF;" vertex="1" connectable="0" parent="FGPLI17WFUnC6xqe849k-18">
          <mxGeometry x="-0.7963" relative="1" as="geometry">
            <mxPoint x="70" y="-16" as="offset" />
          </mxGeometry>
        </mxCell>
        <mxCell id="FGPLI17WFUnC6xqe849k-20" value="" style="html=1;points=[];perimeter=orthogonalPerimeter;" vertex="1" parent="1">
          <mxGeometry x="315" y="233" width="10" height="40" as="geometry" />
        </mxCell>
        <mxCell id="FGPLI17WFUnC6xqe849k-21" value="" style="html=1;points=[];perimeter=orthogonalPerimeter;" vertex="1" parent="1">
          <mxGeometry x="315" y="202" width="10" height="40" as="geometry" />
        </mxCell>
        <mxCell id="FGPLI17WFUnC6xqe849k-22" style="edgeStyle=orthogonalEdgeStyle;rounded=0;orthogonalLoop=1;jettySize=auto;html=1;exitX=0.5;exitY=0;exitDx=0;exitDy=0;" edge="1" parent="1" source="FGPLI17WFUnC6xqe849k-23" target="FGPLI17WFUnC6xqe849k-29">
          <mxGeometry relative="1" as="geometry" />
        </mxCell>
        <mxCell id="FGPLI17WFUnC6xqe849k-23" value="ActiveTcpListener" style="html=1;" vertex="1" parent="1">
          <mxGeometry x="270" y="70" width="110" height="20" as="geometry" />
        </mxCell>
        <mxCell id="FGPLI17WFUnC6xqe849k-24" value="" style="edgeStyle=orthogonalEdgeStyle;rounded=0;orthogonalLoop=1;jettySize=auto;html=1;" edge="1" parent="1">
          <mxGeometry relative="1" as="geometry">
            <Array as="points">
              <mxPoint x="540" y="214" />
              <mxPoint x="540" y="214" />
            </Array>
            <mxPoint x="325" y="214" as="sourcePoint" />
            <mxPoint x="570" y="214" as="targetPoint" />
          </mxGeometry>
        </mxCell>
        <mxCell id="FGPLI17WFUnC6xqe849k-25" value="" style="html=1;points=[];perimeter=orthogonalPerimeter;" vertex="1" parent="1">
          <mxGeometry x="315" y="100" width="10" height="470" as="geometry" />
        </mxCell>
        <mxCell id="FGPLI17WFUnC6xqe849k-26" value="" style="edgeStyle=orthogonalEdgeStyle;rounded=0;orthogonalLoop=1;jettySize=auto;html=1;" edge="1" parent="1">
          <mxGeometry relative="1" as="geometry">
            <Array as="points">
              <mxPoint x="667" y="268" />
              <mxPoint x="667" y="268" />
            </Array>
            <mxPoint x="580" y="268" as="sourcePoint" />
            <mxPoint x="757" y="268" as="targetPoint" />
          </mxGeometry>
        </mxCell>
        <mxCell id="FGPLI17WFUnC6xqe849k-27" value="" style="html=1;points=[];perimeter=orthogonalPerimeter;" vertex="1" parent="1">
          <mxGeometry x="570" y="100" width="10" height="409" as="geometry" />
        </mxCell>
        <mxCell id="FGPLI17WFUnC6xqe849k-28" value="" style="html=1;points=[];perimeter=orthogonalPerimeter;" vertex="1" parent="1">
          <mxGeometry x="757" y="100" width="10" height="409" as="geometry" />
        </mxCell>
        <mxCell id="FGPLI17WFUnC6xqe849k-29" value="ActiveStreamListnerBase" style="html=1;" vertex="1" parent="1">
          <mxGeometry x="250" y="30" width="150" height="20" as="geometry" />
        </mxCell>
        <mxCell id="FGPLI17WFUnC6xqe849k-30" value="ActiveSocket" style="html=1;" vertex="1" parent="1">
          <mxGeometry x="507" y="70" width="110" height="20" as="geometry" />
        </mxCell>
        <mxCell id="FGPLI17WFUnC6xqe849k-31" value="GenericListenerFilter" style="html=1;" vertex="1" parent="1">
          <mxGeometry x="702" y="70" width="120" height="20" as="geometry" />
        </mxCell>
        <mxCell id="FGPLI17WFUnC6xqe849k-32" value="" style="endArrow=classic;html=1;" edge="1" parent="1">
          <mxGeometry width="50" height="50" relative="1" as="geometry">
            <mxPoint x="756" y="288" as="sourcePoint" />
            <mxPoint x="580" y="288" as="targetPoint" />
          </mxGeometry>
        </mxCell>
        <mxCell id="FGPLI17WFUnC6xqe849k-33" value="go through listener filter chain" style="text;html=1;resizable=0;points=[];autosize=1;align=left;verticalAlign=top;spacingTop=-4;" vertex="1" parent="1">
          <mxGeometry x="587" y="268" width="170" height="20" as="geometry" />
        </mxCell>
        <mxCell id="FGPLI17WFUnC6xqe849k-34" value="" style="html=1;points=[];perimeter=orthogonalPerimeter;" vertex="1" parent="1">
          <mxGeometry x="100" y="124" width="10" height="40" as="geometry" />
        </mxCell>
        <mxCell id="FGPLI17WFUnC6xqe849k-35" value="" style="edgeStyle=orthogonalEdgeStyle;html=1;align=left;spacingLeft=2;endArrow=block;rounded=0;" edge="1" parent="1" target="FGPLI17WFUnC6xqe849k-38">
          <mxGeometry relative="1" as="geometry">
            <mxPoint x="104" y="104" as="sourcePoint" />
            <Array as="points">
              <mxPoint x="210" y="104" />
              <mxPoint x="210" y="550" />
            </Array>
            <mxPoint x="109" y="124" as="targetPoint" />
          </mxGeometry>
        </mxCell>
        <mxCell id="FGPLI17WFUnC6xqe849k-36" value="&lt;span style=&quot;font-size: 11px ; text-align: left&quot;&gt;onSocketEvent&lt;/span&gt;" style="text;html=1;resizable=0;points=[];align=center;verticalAlign=middle;labelBackgroundColor=default;fontColor=#FFFFFF;" vertex="1" connectable="0" parent="FGPLI17WFUnC6xqe849k-35">
          <mxGeometry x="-0.7608" relative="1" as="geometry">
            <mxPoint x="-22" y="-4" as="offset" />
          </mxGeometry>
        </mxCell>
        <mxCell id="FGPLI17WFUnC6xqe849k-37" value="TcpListenerImpl" style="html=1;" vertex="1" parent="1">
          <mxGeometry x="60" y="70" width="110" height="20" as="geometry" />
        </mxCell>
        <mxCell id="FGPLI17WFUnC6xqe849k-38" value="" style="html=1;points=[];perimeter=orthogonalPerimeter;" vertex="1" parent="1">
          <mxGeometry x="100" y="100" width="10" height="460" as="geometry" />
        </mxCell>
        <mxCell id="FGPLI17WFUnC6xqe849k-39" value="" style="endArrow=classic;html=1;entryX=0.05;entryY=0.116;entryDx=0;entryDy=0;entryPerimeter=0;" edge="1" parent="1" source="FGPLI17WFUnC6xqe849k-38" target="FGPLI17WFUnC6xqe849k-25">
          <mxGeometry width="50" height="50" relative="1" as="geometry">
            <mxPoint x="60" y="580" as="sourcePoint" />
            <mxPoint x="310" y="155" as="targetPoint" />
          </mxGeometry>
        </mxCell>
        <mxCell id="FGPLI17WFUnC6xqe849k-40" value="" style="endArrow=classic;html=1;exitX=-0.1;exitY=0.782;exitDx=0;exitDy=0;exitPerimeter=0;entryX=0.9;entryY=0.782;entryDx=0;entryDy=0;entryPerimeter=0;" edge="1" parent="1">
          <mxGeometry width="50" height="50" relative="1" as="geometry">
            <mxPoint x="570" y="339.83799999999997" as="sourcePoint" />
            <mxPoint x="325" y="339.83799999999997" as="targetPoint" />
          </mxGeometry>
        </mxCell>
        <mxCell id="FGPLI17WFUnC6xqe849k-41" value="&lt;span style=&quot;font-size: 11px ; text-align: left&quot;&gt;newConnection&lt;/span&gt;" style="text;html=1;resizable=0;points=[];align=center;verticalAlign=middle;labelBackgroundColor=default;fontColor=#FFFFFF;" vertex="1" connectable="0" parent="FGPLI17WFUnC6xqe849k-40">
          <mxGeometry x="0.5102" y="2" relative="1" as="geometry">
            <mxPoint x="-5" y="26" as="offset" />
          </mxGeometry>
        </mxCell>
        <mxCell id="FGPLI17WFUnC6xqe849k-42" value="" style="shape=link;html=1;" edge="1" parent="1">
          <mxGeometry width="50" height="50" relative="1" as="geometry">
            <mxPoint y="590" as="sourcePoint" />
            <mxPoint x="840" y="590" as="targetPoint" />
          </mxGeometry>
        </mxCell>
        <mxCell id="FGPLI17WFUnC6xqe849k-43" value="&lt;span style=&quot;&quot;&gt;dispatcher().createServerConnection&lt;/span&gt;" style="text;html=1;resizable=0;points=[];autosize=1;align=left;verticalAlign=top;spacingTop=-4;fontColor=#FFFFFF;labelBackgroundColor=default;" vertex="1" parent="1">
          <mxGeometry x="270" y="410" width="210" height="20" as="geometry" />
        </mxCell>
        <mxCell id="FGPLI17WFUnC6xqe849k-44" style="edgeStyle=orthogonalEdgeStyle;rounded=0;orthogonalLoop=1;jettySize=auto;html=1;exitX=0.5;exitY=0;exitDx=0;exitDy=0;" edge="1" parent="1" source="FGPLI17WFUnC6xqe849k-45" target="FGPLI17WFUnC6xqe849k-46">
          <mxGeometry relative="1" as="geometry" />
        </mxCell>
        <mxCell id="FGPLI17WFUnC6xqe849k-45" value="ServerConnectionImpl" style="html=1;" vertex="1" parent="1">
          <mxGeometry x="41" y="670" width="130" height="20" as="geometry" />
        </mxCell>
        <mxCell id="FGPLI17WFUnC6xqe849k-46" value="ConnectionImpl" style="html=1;" vertex="1" parent="1">
          <mxGeometry x="41" y="630" width="130" height="20" as="geometry" />
        </mxCell>
        <mxCell id="FGPLI17WFUnC6xqe849k-47" value="" style="html=1;points=[];perimeter=orthogonalPerimeter;" vertex="1" parent="1">
          <mxGeometry x="70" y="730" width="10" height="470" as="geometry" />
        </mxCell>
        <mxCell id="FGPLI17WFUnC6xqe849k-48" value="" style="edgeStyle=orthogonalEdgeStyle;html=1;align=left;spacingLeft=2;endArrow=block;rounded=0;" edge="1" parent="1" source="FGPLI17WFUnC6xqe849k-47" target="FGPLI17WFUnC6xqe849k-47">
          <mxGeometry relative="1" as="geometry">
            <mxPoint x="125" y="740" as="sourcePoint" />
            <Array as="points">
              <mxPoint x="220" y="740" />
              <mxPoint x="220" y="820" />
            </Array>
          </mxGeometry>
        </mxCell>
        <mxCell id="FGPLI17WFUnC6xqe849k-49" value="ConnectionImpl" style="text;html=1;resizable=0;points=[];align=center;verticalAlign=middle;labelBackgroundColor=none;fontColor=#FFFFFF;" vertex="1" connectable="0" parent="FGPLI17WFUnC6xqe849k-48">
          <mxGeometry x="-0.5525" relative="1" as="geometry">
            <mxPoint x="-24" as="offset" />
          </mxGeometry>
        </mxCell>
        <mxCell id="FGPLI17WFUnC6xqe849k-50" value="&lt;div style=&quot;font-family: &amp;quot;droid sans mono&amp;quot; , monospace , monospace , &amp;quot;droid sans fallback&amp;quot; ; line-height: 171% ; white-space: pre ; font-size: 7px&quot;&gt;&lt;div&gt;&lt;span style=&quot;&quot;&gt;socket_-&amp;gt;ioHandle().initializeFileEvent(&lt;/span&gt;&lt;/div&gt;&lt;div&gt;&lt;span style=&quot;&quot;&gt;      dispatcher_, [this](uint32_t events) -&amp;gt; void { &lt;b&gt;onFileEvent&lt;/b&gt;(events); }, trigger,&lt;/span&gt;&lt;/div&gt;&lt;div&gt;&lt;span style=&quot;&quot;&gt;      Event::FileReadyType::Read | Event::FileReadyType::Write);&lt;/span&gt;&lt;/div&gt;&lt;/div&gt;" style="text;html=1;resizable=0;points=[];autosize=1;align=left;verticalAlign=top;spacingTop=-4;fontColor=#FFFFFF;labelBackgroundColor=none;" vertex="1" parent="1">
          <mxGeometry x="10" y="760" width="370" height="40" as="geometry" />
        </mxCell>
        <mxCell id="FGPLI17WFUnC6xqe849k-51" value="" style="endArrow=classic;html=1;" edge="1" parent="1" source="FGPLI17WFUnC6xqe849k-47" target="FGPLI17WFUnC6xqe849k-47">
          <mxGeometry width="50" height="50" relative="1" as="geometry">
            <mxPoint x="79" y="890" as="sourcePoint" />
            <mxPoint x="75" y="1040" as="targetPoint" />
            <Array as="points">
              <mxPoint x="150" y="860" />
              <mxPoint x="230" y="860" />
              <mxPoint x="230" y="950" />
              <mxPoint x="230" y="1100" />
              <mxPoint x="150" y="1100" />
            </Array>
          </mxGeometry>
        </mxCell>
        <mxCell id="FGPLI17WFUnC6xqe849k-52" value="onFileEvent" style="text;html=1;resizable=0;points=[];align=center;verticalAlign=middle;labelBackgroundColor=none;fontColor=#FFFFFF;" vertex="1" connectable="0" parent="FGPLI17WFUnC6xqe849k-51">
          <mxGeometry x="-0.6364" y="1" relative="1" as="geometry">
            <mxPoint x="-28" y="1" as="offset" />
          </mxGeometry>
        </mxCell>
        <mxCell id="FGPLI17WFUnC6xqe849k-53" value="" style="edgeStyle=orthogonalEdgeStyle;html=1;align=left;spacingLeft=2;endArrow=block;rounded=0;" edge="1" parent="1" source="FGPLI17WFUnC6xqe849k-47" target="FGPLI17WFUnC6xqe849k-47">
          <mxGeometry relative="1" as="geometry">
            <mxPoint x="80" y="910" as="sourcePoint" />
            <Array as="points">
              <mxPoint x="210" y="880" />
              <mxPoint x="210" y="990" />
            </Array>
            <mxPoint x="85" y="930" as="targetPoint" />
          </mxGeometry>
        </mxCell>
        <mxCell id="FGPLI17WFUnC6xqe849k-54" value="onReadReady" style="text;html=1;resizable=0;points=[];align=center;verticalAlign=middle;labelBackgroundColor=none;fontColor=#FFFFFF;" vertex="1" connectable="0" parent="FGPLI17WFUnC6xqe849k-53">
          <mxGeometry x="-0.3833" y="2" relative="1" as="geometry">
            <mxPoint x="-24" y="2" as="offset" />
          </mxGeometry>
        </mxCell>
        <mxCell id="FGPLI17WFUnC6xqe849k-55" value="or" style="text;html=1;resizable=0;points=[];autosize=1;align=left;verticalAlign=top;spacingTop=-4;" vertex="1" parent="1">
          <mxGeometry x="85" y="997" width="30" height="20" as="geometry" />
        </mxCell>
        <mxCell id="FGPLI17WFUnC6xqe849k-56" value="" style="edgeStyle=orthogonalEdgeStyle;html=1;align=left;spacingLeft=2;endArrow=block;rounded=0;" edge="1" parent="1" source="FGPLI17WFUnC6xqe849k-47" target="FGPLI17WFUnC6xqe849k-47">
          <mxGeometry relative="1" as="geometry">
            <mxPoint x="70" y="1004" as="sourcePoint" />
            <Array as="points">
              <mxPoint x="210" y="1020" />
              <mxPoint x="210" y="1070" />
            </Array>
            <mxPoint x="80" y="1024" as="targetPoint" />
          </mxGeometry>
        </mxCell>
        <mxCell id="FGPLI17WFUnC6xqe849k-57" value="onWriteRead" style="text;html=1;resizable=0;points=[];align=center;verticalAlign=middle;labelBackgroundColor=none;fontColor=#FFFFFF;" vertex="1" connectable="0" parent="FGPLI17WFUnC6xqe849k-56">
          <mxGeometry x="-0.6833" y="1" relative="1" as="geometry">
            <mxPoint x="19" y="1" as="offset" />
          </mxGeometry>
        </mxCell>
        <mxCell id="FGPLI17WFUnC6xqe849k-58" value="" style="html=1;points=[];perimeter=orthogonalPerimeter;" vertex="1" parent="1">
          <mxGeometry x="388" y="730" width="10" height="470" as="geometry" />
        </mxCell>
        <mxCell id="FGPLI17WFUnC6xqe849k-59" value="TransportSocket" style="html=1;" vertex="1" parent="1">
          <mxGeometry x="328" y="630" width="130" height="20" as="geometry" />
        </mxCell>
        <mxCell id="FGPLI17WFUnC6xqe849k-60" style="edgeStyle=orthogonalEdgeStyle;rounded=0;orthogonalLoop=1;jettySize=auto;html=1;exitX=0.5;exitY=0;exitDx=0;exitDy=0;entryX=0.5;entryY=1;entryDx=0;entryDy=0;" edge="1" parent="1" source="FGPLI17WFUnC6xqe849k-61" target="FGPLI17WFUnC6xqe849k-59">
          <mxGeometry relative="1" as="geometry" />
        </mxCell>
        <mxCell id="FGPLI17WFUnC6xqe849k-61" value="SslSocket" style="html=1;" vertex="1" parent="1">
          <mxGeometry x="328" y="670" width="130" height="20" as="geometry" />
        </mxCell>
        <mxCell id="FGPLI17WFUnC6xqe849k-62" value="" style="endArrow=classic;html=1;" edge="1" parent="1" source="FGPLI17WFUnC6xqe849k-47" target="FGPLI17WFUnC6xqe849k-58">
          <mxGeometry width="50" height="50" relative="1" as="geometry">
            <mxPoint x="10" y="1270" as="sourcePoint" />
            <mxPoint x="60" y="1220" as="targetPoint" />
            <Array as="points">
              <mxPoint x="290" y="890" />
            </Array>
          </mxGeometry>
        </mxCell>
        <mxCell id="FGPLI17WFUnC6xqe849k-63" value="" style="edgeStyle=orthogonalEdgeStyle;html=1;align=left;spacingLeft=2;endArrow=block;rounded=0;" edge="1" parent="1" target="FGPLI17WFUnC6xqe849k-58">
          <mxGeometry relative="1" as="geometry">
            <mxPoint x="398" y="891" as="sourcePoint" />
            <Array as="points">
              <mxPoint x="528" y="891" />
              <mxPoint x="528" y="920" />
            </Array>
            <mxPoint x="398" y="911" as="targetPoint" />
          </mxGeometry>
        </mxCell>
        <mxCell id="FGPLI17WFUnC6xqe849k-64" value="doRead" style="text;html=1;resizable=0;points=[];align=center;verticalAlign=middle;labelBackgroundColor=none;fontColor=#FFFFFF;" vertex="1" connectable="0" parent="FGPLI17WFUnC6xqe849k-63">
          <mxGeometry x="-0.3833" y="2" relative="1" as="geometry">
            <mxPoint x="-24" y="2" as="offset" />
          </mxGeometry>
        </mxCell>
        <mxCell id="FGPLI17WFUnC6xqe849k-65" value="" style="edgeStyle=orthogonalEdgeStyle;html=1;align=left;spacingLeft=2;endArrow=block;rounded=0;" edge="1" parent="1" source="FGPLI17WFUnC6xqe849k-58" target="FGPLI17WFUnC6xqe849k-58">
          <mxGeometry relative="1" as="geometry">
            <mxPoint x="398" y="1000" as="sourcePoint" />
            <Array as="points">
              <mxPoint x="528" y="1030" />
              <mxPoint x="528" y="1060" />
            </Array>
            <mxPoint x="398" y="1040" as="targetPoint" />
          </mxGeometry>
        </mxCell>
        <mxCell id="FGPLI17WFUnC6xqe849k-66" value="doWrite" style="text;html=1;resizable=0;points=[];align=center;verticalAlign=middle;labelBackgroundColor=#ffffff;" vertex="1" connectable="0" parent="FGPLI17WFUnC6xqe849k-65">
          <mxGeometry x="-0.3833" y="2" relative="1" as="geometry">
            <mxPoint x="-24" y="2" as="offset" />
          </mxGeometry>
        </mxCell>
        <mxCell id="FGPLI17WFUnC6xqe849k-67" value="" style="endArrow=classic;html=1;" edge="1" parent="1" source="FGPLI17WFUnC6xqe849k-47" target="FGPLI17WFUnC6xqe849k-58">
          <mxGeometry width="50" height="50" relative="1" as="geometry">
            <mxPoint x="80" y="1009.96" as="sourcePoint" />
            <mxPoint x="402.5" y="1009.96" as="targetPoint" />
            <Array as="points">
              <mxPoint x="360" y="1030" />
            </Array>
          </mxGeometry>
        </mxCell>
        <mxCell id="FGPLI17WFUnC6xqe849k-68" value="doHandshake()" style="text;html=1;resizable=0;points=[];autosize=1;align=left;verticalAlign=top;spacingTop=-4;" vertex="1" parent="1">
          <mxGeometry x="407" y="897" width="100" height="20" as="geometry" />
        </mxCell>
        <mxCell id="FGPLI17WFUnC6xqe849k-69" value="doHandshake()" style="text;html=1;fontColor=#FFFFFF;labelBackgroundColor=none;" vertex="1" parent="1">
          <mxGeometry x="408" y="1032" width="100" height="30" as="geometry" />
        </mxCell>
        <mxCell id="FGPLI17WFUnC6xqe849k-70" value="" style="edgeStyle=orthogonalEdgeStyle;html=1;align=left;spacingLeft=2;endArrow=block;rounded=0;" edge="1" parent="1" target="FGPLI17WFUnC6xqe849k-47">
          <mxGeometry relative="1" as="geometry">
            <mxPoint x="80" y="918.4705882352941" as="sourcePoint" />
            <Array as="points">
              <mxPoint x="80" y="920" />
              <mxPoint x="200" y="920" />
              <mxPoint x="200" y="980" />
            </Array>
            <mxPoint x="80" y="947.8823529411766" as="targetPoint" />
          </mxGeometry>
        </mxCell>
        <mxCell id="FGPLI17WFUnC6xqe849k-71" value="onRead" style="text;html=1;resizable=0;points=[];align=center;verticalAlign=middle;labelBackgroundColor=none;fontColor=#FFFFFF;" vertex="1" connectable="0" parent="FGPLI17WFUnC6xqe849k-70">
          <mxGeometry x="-0.3833" y="2" relative="1" as="geometry">
            <mxPoint x="-24" y="2" as="offset" />
          </mxGeometry>
        </mxCell>
        <mxCell id="FGPLI17WFUnC6xqe849k-72" value="FilterManagerImpl" style="html=1;" vertex="1" parent="1">
          <mxGeometry x="521" y="670" width="130" height="20" as="geometry" />
        </mxCell>
        <mxCell id="FGPLI17WFUnC6xqe849k-73" value="" style="html=1;points=[];perimeter=orthogonalPerimeter;" vertex="1" parent="1">
          <mxGeometry x="581" y="730" width="10" height="470" as="geometry" />
        </mxCell>
        <mxCell id="FGPLI17WFUnC6xqe849k-74" value="" style="edgeStyle=orthogonalEdgeStyle;html=1;align=left;spacingLeft=2;endArrow=block;rounded=0;" edge="1" parent="1" source="FGPLI17WFUnC6xqe849k-73" target="FGPLI17WFUnC6xqe849k-73">
          <mxGeometry relative="1" as="geometry">
            <mxPoint x="591.5" y="927.4705882352941" as="sourcePoint" />
            <Array as="points">
              <mxPoint x="722" y="930" />
              <mxPoint x="722" y="980" />
            </Array>
            <mxPoint x="591.5" y="956.8823529411766" as="targetPoint" />
          </mxGeometry>
        </mxCell>
        <mxCell id="FGPLI17WFUnC6xqe849k-75" value="onRead" style="text;html=1;resizable=0;points=[];align=center;verticalAlign=middle;labelBackgroundColor=none;fontColor=#FFFFFF;" vertex="1" connectable="0" parent="FGPLI17WFUnC6xqe849k-74">
          <mxGeometry x="-0.3833" y="2" relative="1" as="geometry">
            <mxPoint x="-24" y="2" as="offset" />
          </mxGeometry>
        </mxCell>
        <mxCell id="FGPLI17WFUnC6xqe849k-76" value="" style="endArrow=classic;html=1;" edge="1" parent="1" source="FGPLI17WFUnC6xqe849k-47" target="FGPLI17WFUnC6xqe849k-73">
          <mxGeometry width="50" height="50" relative="1" as="geometry">
            <mxPoint x="80" y="933.1999999999998" as="sourcePoint" />
            <mxPoint x="690" y="930" as="targetPoint" />
            <Array as="points">
              <mxPoint x="120" y="930" />
            </Array>
          </mxGeometry>
        </mxCell>
        <mxCell id="FGPLI17WFUnC6xqe849k-77" value="ReadFilter" style="html=1;" vertex="1" parent="1">
          <mxGeometry x="712" y="670" width="130" height="20" as="geometry" />
        </mxCell>
        <mxCell id="FGPLI17WFUnC6xqe849k-78" value="" style="html=1;points=[];perimeter=orthogonalPerimeter;" vertex="1" parent="1">
          <mxGeometry x="772" y="730" width="10" height="470" as="geometry" />
        </mxCell>
        <mxCell id="FGPLI17WFUnC6xqe849k-79" value="" style="edgeStyle=orthogonalEdgeStyle;html=1;align=left;spacingLeft=2;endArrow=block;rounded=0;" edge="1" parent="1" source="FGPLI17WFUnC6xqe849k-78" target="FGPLI17WFUnC6xqe849k-78">
          <mxGeometry relative="1" as="geometry">
            <mxPoint x="797" y="929.3823529411766" as="sourcePoint" />
            <Array as="points">
              <mxPoint x="840" y="950" />
              <mxPoint x="840" y="970" />
            </Array>
            <mxPoint x="797" y="979.9705882352941" as="targetPoint" />
          </mxGeometry>
        </mxCell>
        <mxCell id="FGPLI17WFUnC6xqe849k-80" value="onData" style="text;html=1;resizable=0;points=[];align=center;verticalAlign=middle;labelBackgroundColor=none;fontColor=#FFFFFF;" vertex="1" connectable="0" parent="FGPLI17WFUnC6xqe849k-79">
          <mxGeometry x="-0.3833" y="2" relative="1" as="geometry">
            <mxPoint x="-14" y="2" as="offset" />
          </mxGeometry>
        </mxCell>
        <mxCell id="FGPLI17WFUnC6xqe849k-81" value="" style="endArrow=classic;html=1;" edge="1" parent="1" source="FGPLI17WFUnC6xqe849k-73" target="FGPLI17WFUnC6xqe849k-78">
          <mxGeometry width="50" height="50" relative="1" as="geometry">
            <mxPoint x="114" y="1270" as="sourcePoint" />
            <mxPoint x="164" y="1220" as="targetPoint" />
            <Array as="points">
              <mxPoint x="740" y="950" />
            </Array>
          </mxGeometry>
        </mxCell>
        <mxCell id="FGPLI17WFUnC6xqe849k-82" value="go throught filters" style="text;html=1;resizable=0;points=[];align=center;verticalAlign=middle;labelBackgroundColor=none;fontColor=#FFFFFF;" vertex="1" connectable="0" parent="FGPLI17WFUnC6xqe849k-81">
          <mxGeometry x="0.6838" y="132" relative="1" as="geometry">
            <mxPoint x="-83" y="142" as="offset" />
          </mxGeometry>
        </mxCell>
        <mxCell id="FGPLI17WFUnC6xqe849k-83" value="" style="shape=link;html=1;" edge="1" parent="1">
          <mxGeometry width="50" height="50" relative="1" as="geometry">
            <mxPoint y="1230" as="sourcePoint" />
            <mxPoint x="840" y="1230" as="targetPoint" />
          </mxGeometry>
        </mxCell>
        <mxCell id="FGPLI17WFUnC6xqe849k-84" value="ReadFilter" style="html=1;" vertex="1" parent="1">
          <mxGeometry x="40" y="1270" width="130" height="20" as="geometry" />
        </mxCell>
        <mxCell id="FGPLI17WFUnC6xqe849k-85" value="" style="html=1;points=[];perimeter=orthogonalPerimeter;" vertex="1" parent="1">
          <mxGeometry x="45" y="1360" width="10" height="470" as="geometry" />
        </mxCell>
        <mxCell id="FGPLI17WFUnC6xqe849k-86" value="" style="edgeStyle=orthogonalEdgeStyle;html=1;align=left;spacingLeft=2;endArrow=block;rounded=0;" edge="1" parent="1" source="FGPLI17WFUnC6xqe849k-85" target="FGPLI17WFUnC6xqe849k-85">
          <mxGeometry relative="1" as="geometry">
            <mxPoint x="80" y="1370" as="sourcePoint" />
            <Array as="points">
              <mxPoint x="240" y="1380" />
              <mxPoint x="240" y="1700" />
            </Array>
            <mxPoint x="80" y="1432" as="targetPoint" />
          </mxGeometry>
        </mxCell>
        <mxCell id="FGPLI17WFUnC6xqe849k-87" value="onData" style="text;html=1;resizable=0;points=[];align=center;verticalAlign=middle;labelBackgroundColor=#ffffff;" vertex="1" connectable="0" parent="FGPLI17WFUnC6xqe849k-86">
          <mxGeometry x="-0.3833" y="2" relative="1" as="geometry">
            <mxPoint x="-102" y="-32" as="offset" />
          </mxGeometry>
        </mxCell>
        <mxCell id="FGPLI17WFUnC6xqe849k-88" style="edgeStyle=orthogonalEdgeStyle;rounded=0;orthogonalLoop=1;jettySize=auto;html=1;exitX=0.5;exitY=0;exitDx=0;exitDy=0;entryX=0.5;entryY=1;entryDx=0;entryDy=0;" edge="1" parent="1" source="FGPLI17WFUnC6xqe849k-89" target="FGPLI17WFUnC6xqe849k-84">
          <mxGeometry relative="1" as="geometry" />
        </mxCell>
        <mxCell id="FGPLI17WFUnC6xqe849k-89" value="HTTP ConnectionManagerImpl&lt;span style=&quot;color: rgba(0 , 0 , 0 , 0) ; font-family: monospace ; font-size: 0px&quot;&gt;%3CmxGraphModel%3E%3Croot%3E%3CmxCell%20id%3D%220%22%2F%3E%3CmxCell%20id%3D%221%22%20parent%3D%220%22%2F%3E%3CmxCell%20id%3D%222%22%20value%3D%22ReadFilter%22%20style%3D%22html%3D1%3B%22%20vertex%3D%221%22%20parent%3D%221%22%3E%3CmxGeometry%20x%3D%2210%22%20y%3D%221270%22%20width%3D%22130%22%20height%3D%2220%22%20as%3D%22geometry%22%2F%3E%3C%2FmxCell%3E%3C%2Froot%3E%3C%2FmxGraphModel%3E Cp&lt;/span&gt;" style="html=1;" vertex="1" parent="1">
          <mxGeometry x="11" y="1320" width="190" height="20" as="geometry" />
        </mxCell>
        <mxCell id="FGPLI17WFUnC6xqe849k-90" value="HTTP codec ConnectionImpl&lt;span style=&quot;color: rgba(0 , 0 , 0 , 0) ; font-family: monospace ; font-size: 0px&quot;&gt;%3CmxGraphModel%3E%3Croot%3E%3CmxCell%20id%3D%220%22%2F%3E%3CmxCell%20id%3D%221%22%20parent%3D%220%22%2F%3E%3CmxCell%20id%3D%222%22%20value%3D%22ReadFilter%22%20style%3D%22html%3D1%3B%22%20vertex%3D%221%22%20parent%3D%221%22%3E%3CmxGeometry%20x%3D%2210%22%20y%3D%221270%22%20width%3D%22130%22%20height%3D%2220%22%20as%3D%22geometry%22%2F%3E%3C%2FmxCell%3E%3C%2Froot%3E%3C%2FmxGraphel%3E Cp&lt;/span&gt;" style="html=1;" vertex="1" parent="1">
          <mxGeometry x="233" y="1270" width="190" height="20" as="geometry" />
        </mxCell>
        <mxCell id="FGPLI17WFUnC6xqe849k-91" value="" style="html=1;points=[];perimeter=orthogonalPerimeter;" vertex="1" parent="1">
          <mxGeometry x="270" y="1360" width="10" height="470" as="geometry" />
        </mxCell>
        <mxCell id="FGPLI17WFUnC6xqe849k-92" value="" style="edgeStyle=orthogonalEdgeStyle;html=1;align=left;spacingLeft=2;endArrow=block;rounded=0;" edge="1" parent="1" source="FGPLI17WFUnC6xqe849k-91" target="FGPLI17WFUnC6xqe849k-91">
          <mxGeometry relative="1" as="geometry">
            <mxPoint x="320" y="1422" as="sourcePoint" />
            <Array as="points">
              <mxPoint x="460" y="1380" />
              <mxPoint x="460" y="1670" />
            </Array>
            <mxPoint x="348" y="1482" as="targetPoint" />
          </mxGeometry>
        </mxCell>
        <mxCell id="FGPLI17WFUnC6xqe849k-93" value="&lt;span style=&quot;text-align: left ; background-color: rgb(248 , 249 , 250)&quot;&gt;dispatch&lt;/span&gt;" style="text;html=1;resizable=0;points=[];align=center;verticalAlign=middle;labelBackgroundColor=#ffffff;" vertex="1" connectable="0" parent="FGPLI17WFUnC6xqe849k-92">
          <mxGeometry x="-0.7294" relative="1" as="geometry">
            <mxPoint as="offset" />
          </mxGeometry>
        </mxCell>
        <mxCell id="FGPLI17WFUnC6xqe849k-94" value="" style="edgeStyle=orthogonalEdgeStyle;html=1;align=left;spacingLeft=2;endArrow=block;rounded=0;" edge="1" parent="1" source="FGPLI17WFUnC6xqe849k-91" target="FGPLI17WFUnC6xqe849k-91">
          <mxGeometry relative="1" as="geometry">
            <mxPoint x="338" y="1390" as="sourcePoint" />
            <Array as="points">
              <mxPoint x="450" y="1400" />
              <mxPoint x="450" y="1650" />
            </Array>
            <mxPoint x="338" y="1480" as="targetPoint" />
          </mxGeometry>
        </mxCell>
        <mxCell id="FGPLI17WFUnC6xqe849k-95" value="&lt;span style=&quot;text-align: left ; background-color: rgb(248 , 249 , 250)&quot;&gt;dispatchSlice&lt;br&gt;&lt;/span&gt;" style="text;html=1;resizable=0;points=[];align=center;verticalAlign=middle;labelBackgroundColor=#ffffff;" vertex="1" connectable="0" parent="FGPLI17WFUnC6xqe849k-94">
          <mxGeometry x="-0.7294" relative="1" as="geometry">
            <mxPoint x="18" as="offset" />
          </mxGeometry>
        </mxCell>
        <mxCell id="FGPLI17WFUnC6xqe849k-96" value="" style="edgeStyle=orthogonalEdgeStyle;html=1;align=left;spacingLeft=2;endArrow=block;rounded=0;" edge="1" parent="1" source="FGPLI17WFUnC6xqe849k-91" target="FGPLI17WFUnC6xqe849k-91">
          <mxGeometry relative="1" as="geometry">
            <mxPoint x="328" y="1520" as="sourcePoint" />
            <Array as="points">
              <mxPoint x="440" y="1420" />
              <mxPoint x="440" y="1630" />
            </Array>
            <mxPoint x="328" y="1570" as="targetPoint" />
          </mxGeometry>
        </mxCell>
        <mxCell id="FGPLI17WFUnC6xqe849k-97" value="&lt;span style=&quot;text-align: left ; background-color: rgb(248 , 249 , 250)&quot;&gt;onMessageComplete&lt;br&gt;&lt;/span&gt;" style="text;html=1;resizable=0;points=[];align=center;verticalAlign=middle;labelBackgroundColor=#ffffff;" vertex="1" connectable="0" parent="FGPLI17WFUnC6xqe849k-96">
          <mxGeometry x="-0.7294" relative="1" as="geometry">
            <mxPoint x="17" as="offset" />
          </mxGeometry>
        </mxCell>
        <mxCell id="FGPLI17WFUnC6xqe849k-98" value="" style="edgeStyle=orthogonalEdgeStyle;html=1;align=left;spacingLeft=2;endArrow=block;rounded=0;" edge="1" parent="1" source="FGPLI17WFUnC6xqe849k-91" target="FGPLI17WFUnC6xqe849k-91">
          <mxGeometry relative="1" as="geometry">
            <mxPoint x="338" y="1530" as="sourcePoint" />
            <Array as="points">
              <mxPoint x="430" y="1450" />
              <mxPoint x="430" y="1610" />
            </Array>
            <mxPoint x="338" y="1605" as="targetPoint" />
          </mxGeometry>
        </mxCell>
        <mxCell id="FGPLI17WFUnC6xqe849k-99" value="&lt;span style=&quot;text-align: left ; background-color: rgb(248 , 249 , 250)&quot;&gt;onMessageCompleteBase&lt;br&gt;&lt;/span&gt;" style="text;html=1;resizable=0;points=[];align=center;verticalAlign=middle;labelBackgroundColor=#ffffff;" vertex="1" connectable="0" parent="FGPLI17WFUnC6xqe849k-98">
          <mxGeometry x="-0.7294" relative="1" as="geometry">
            <mxPoint x="13" as="offset" />
          </mxGeometry>
        </mxCell>
        <mxCell id="FGPLI17WFUnC6xqe849k-100" style="edgeStyle=orthogonalEdgeStyle;rounded=0;orthogonalLoop=1;jettySize=auto;html=1;exitX=0.5;exitY=0;exitDx=0;exitDy=0;entryX=0.458;entryY=1.1;entryDx=0;entryDy=0;entryPerimeter=0;" edge="1" parent="1" source="FGPLI17WFUnC6xqe849k-101" target="FGPLI17WFUnC6xqe849k-90">
          <mxGeometry relative="1" as="geometry" />
        </mxCell>
        <mxCell id="FGPLI17WFUnC6xqe849k-101" value="HTTP codec ServerConnectionImpl&lt;span style=&quot;color: rgba(0 , 0 , 0 , 0) ; font-family: monospace ; font-size: 0px&quot;&gt;%3CmxGraphModel%3E%3Croot%3E%3CmxCell%20id%3D%220%22%2F%3E%3CmxCell%20id%3D%221%22%20parent%3D%220%22%2F%3E%3CmxCell%20id%3D%222%22%20value%3D%22ReadFilter%22%20style%3D%22html%3D1%3B%22%20vertex%3D%221%22%20parent%3D%221%22%3E%3CmxGeometry%20x%3D%2210%22%20y%3D%221270%22%20width%3D%22130%22%20height%3D%2220%22%20as%3D%22geometry%22%2F%3E%3C%2FmxCell%3E%3C%2Froot%3E%3C%2FmxGraphModel%&lt;/span&gt;" style="html=1;" vertex="1" parent="1">
          <mxGeometry x="221.5" y="1320" width="197" height="20" as="geometry" />
        </mxCell>
        <mxCell id="FGPLI17WFUnC6xqe849k-102" value="" style="endArrow=classic;html=1;" edge="1" parent="1" source="FGPLI17WFUnC6xqe849k-91" target="FGPLI17WFUnC6xqe849k-85">
          <mxGeometry width="50" height="50" relative="1" as="geometry">
            <mxPoint x="10" y="2310" as="sourcePoint" />
            <mxPoint x="150" y="1740" as="targetPoint" />
            <Array as="points">
              <mxPoint x="180" y="1480" />
            </Array>
          </mxGeometry>
        </mxCell>
        <mxCell id="FGPLI17WFUnC6xqe849k-103" value="" style="edgeStyle=orthogonalEdgeStyle;html=1;align=left;spacingLeft=2;endArrow=block;rounded=0;" edge="1" parent="1" source="FGPLI17WFUnC6xqe849k-85" target="FGPLI17WFUnC6xqe849k-85">
          <mxGeometry relative="1" as="geometry">
            <mxPoint x="81" y="1490" as="sourcePoint" />
            <Array as="points">
              <mxPoint x="230" y="1500" />
              <mxPoint x="230" y="1600" />
            </Array>
            <mxPoint x="81" y="1560" as="targetPoint" />
          </mxGeometry>
        </mxCell>
        <mxCell id="FGPLI17WFUnC6xqe849k-104" value="ActiveStream::decodeHeaders" style="text;html=1;resizable=0;points=[];align=center;verticalAlign=middle;labelBackgroundColor=#ffffff;" vertex="1" connectable="0" parent="FGPLI17WFUnC6xqe849k-103">
          <mxGeometry x="-0.6471" y="-2" relative="1" as="geometry">
            <mxPoint x="6" y="-2" as="offset" />
          </mxGeometry>
        </mxCell>
        <mxCell id="FGPLI17WFUnC6xqe849k-105" value="HTTP FilterManager&lt;span style=&quot;color: rgba(0 , 0 , 0 , 0) ; font-family: monospace ; font-size: 0px&quot;&gt;phModel%3E%3Croot%3E%3CmxCell%20id%3D%220%22%2F%3E%3CmxCell%20id%3D%221%22%20parent%3D%220%22%2F%3E%3CmxCell%20id%3D%222%22%20value%3D%22ReadFilter%22%20style%3D%22html%3D1%3B%22%20vertex%3D%221%22%20parent%3D%221%22%3E%3CmxGeometry%20x%3D%2210%22%20y%3D%221270%22%20width%3D%22130%22%20height%3D%2220%22%20as%3D%22geometry%22%2F%3E%3C%2FmxCell%3E%3C%2Froot%3E%3C%2FmxGaphMo&lt;/span&gt;" style="html=1;" vertex="1" parent="1">
          <mxGeometry x="450" y="1320" width="197" height="20" as="geometry" />
        </mxCell>
        <mxCell id="FGPLI17WFUnC6xqe849k-106" value="" style="html=1;points=[];perimeter=orthogonalPerimeter;" vertex="1" parent="1">
          <mxGeometry x="516" y="1360" width="10" height="470" as="geometry" />
        </mxCell>
        <mxCell id="FGPLI17WFUnC6xqe849k-107" value="" style="endArrow=classic;html=1;" edge="1" parent="1" source="FGPLI17WFUnC6xqe849k-85" target="FGPLI17WFUnC6xqe849k-106">
          <mxGeometry width="50" height="50" relative="1" as="geometry">
            <mxPoint x="10" y="2310" as="sourcePoint" />
            <mxPoint x="60" y="2260" as="targetPoint" />
            <Array as="points">
              <mxPoint x="340" y="1520" />
            </Array>
          </mxGeometry>
        </mxCell>
        <mxCell id="FGPLI17WFUnC6xqe849k-108" value="" style="edgeStyle=orthogonalEdgeStyle;html=1;align=left;spacingLeft=2;endArrow=block;rounded=0;" edge="1" parent="1" source="FGPLI17WFUnC6xqe849k-106" target="FGPLI17WFUnC6xqe849k-106">
          <mxGeometry relative="1" as="geometry">
            <mxPoint x="610" y="1520" as="sourcePoint" />
            <Array as="points">
              <mxPoint x="630" y="1520" />
              <mxPoint x="630" y="1595" />
            </Array>
            <mxPoint x="610" y="1615" as="targetPoint" />
          </mxGeometry>
        </mxCell>
        <mxCell id="FGPLI17WFUnC6xqe849k-109" value="decodeHeaders" style="text;html=1;resizable=0;points=[];align=center;verticalAlign=middle;labelBackgroundColor=#ffffff;" vertex="1" connectable="0" parent="FGPLI17WFUnC6xqe849k-108">
          <mxGeometry x="-0.6471" y="-2" relative="1" as="geometry">
            <mxPoint x="2" y="-2" as="offset" />
          </mxGeometry>
        </mxCell>
        <mxCell id="FGPLI17WFUnC6xqe849k-110" style="edgeStyle=orthogonalEdgeStyle;rounded=0;orthogonalLoop=1;jettySize=auto;html=1;exitX=0.5;exitY=0;exitDx=0;exitDy=0;entryX=0.556;entryY=1.075;entryDx=0;entryDy=0;entryPerimeter=0;" edge="1" parent="1" source="FGPLI17WFUnC6xqe849k-111" target="FGPLI17WFUnC6xqe849k-112">
          <mxGeometry relative="1" as="geometry" />
        </mxCell>
        <mxCell id="FGPLI17WFUnC6xqe849k-111" value="Service Routing Filter" style="html=1;" vertex="1" parent="1">
          <mxGeometry x="683.5" y="1320" width="147" height="20" as="geometry" />
        </mxCell>
        <mxCell id="FGPLI17WFUnC6xqe849k-112" value="HTTP::StreamDecoderFilter" style="html=1;" vertex="1" parent="1">
          <mxGeometry x="660" y="1270" width="170" height="20" as="geometry" />
        </mxCell>
        <mxCell id="FGPLI17WFUnC6xqe849k-113" value="" style="html=1;points=[];perimeter=orthogonalPerimeter;" vertex="1" parent="1">
          <mxGeometry x="722" y="1360" width="10" height="470" as="geometry" />
        </mxCell>
        <mxCell id="FGPLI17WFUnC6xqe849k-114" value="" style="edgeStyle=orthogonalEdgeStyle;html=1;align=left;spacingLeft=2;endArrow=block;rounded=0;" edge="1" parent="1" source="FGPLI17WFUnC6xqe849k-113" target="FGPLI17WFUnC6xqe849k-113">
          <mxGeometry relative="1" as="geometry">
            <mxPoint x="732" y="1520" as="sourcePoint" />
            <Array as="points">
              <mxPoint x="840" y="1540" />
              <mxPoint x="840" y="1590" />
            </Array>
            <mxPoint x="732" y="1580" as="targetPoint" />
          </mxGeometry>
        </mxCell>
        <mxCell id="FGPLI17WFUnC6xqe849k-115" value="decodeHeaders" style="text;html=1;resizable=0;points=[];align=center;verticalAlign=middle;labelBackgroundColor=#ffffff;" vertex="1" connectable="0" parent="FGPLI17WFUnC6xqe849k-114">
          <mxGeometry x="-0.6471" y="-2" relative="1" as="geometry">
            <mxPoint x="5" y="-2" as="offset" />
          </mxGeometry>
        </mxCell>
        <mxCell id="FGPLI17WFUnC6xqe849k-116" value="" style="endArrow=classic;html=1;" edge="1" parent="1" source="FGPLI17WFUnC6xqe849k-106" target="FGPLI17WFUnC6xqe849k-113">
          <mxGeometry width="50" height="50" relative="1" as="geometry">
            <mxPoint x="10" y="2310" as="sourcePoint" />
            <mxPoint x="60" y="2260" as="targetPoint" />
            <Array as="points">
              <mxPoint x="630" y="1540" />
            </Array>
          </mxGeometry>
        </mxCell>
        <mxCell id="FGPLI17WFUnC6xqe849k-117" value="&lt;div style=&quot;font-family: &amp;#34;droid sans mono&amp;#34; , monospace , monospace , &amp;#34;droid sans fallback&amp;#34; ; line-height: 19px ; white-space: pre ; font-size: 8px&quot;&gt;&lt;span style=&quot;background-color: rgb(255 , 255 , 255)&quot;&gt;upstream_requests_.front()-&amp;gt;&lt;/span&gt;&lt;/div&gt;&lt;div style=&quot;font-family: &amp;#34;droid sans mono&amp;#34; , monospace , monospace , &amp;#34;droid sans fallback&amp;#34; ; line-height: 19px ; white-space: pre ; font-size: 8px&quot;&gt;&lt;span style=&quot;background-color: rgb(255 , 255 , 255)&quot;&gt;encodeHeaders(end_stream);&lt;/span&gt;&lt;/div&gt;" style="text;html=1;resizable=0;points=[];autosize=1;align=left;verticalAlign=top;spacingTop=-4;" vertex="1" parent="1">
          <mxGeometry x="697" y="1546" width="150" height="40" as="geometry" />
        </mxCell>
        <mxCell id="FGPLI17WFUnC6xqe849k-118" value="" style="shape=link;html=1;" edge="1" parent="1">
          <mxGeometry width="50" height="50" relative="1" as="geometry">
            <mxPoint y="1870" as="sourcePoint" />
            <mxPoint x="840" y="1870" as="targetPoint" />
          </mxGeometry>
        </mxCell>
        <mxCell id="FGPLI17WFUnC6xqe849k-119" value="UpstreamRequest" style="html=1;" vertex="1" parent="1">
          <mxGeometry x="20" y="1940" width="190" height="20" as="geometry" />
        </mxCell>
        <mxCell id="FGPLI17WFUnC6xqe849k-120" value="" style="html=1;points=[];perimeter=orthogonalPerimeter;" vertex="1" parent="1">
          <mxGeometry x="101" y="1990" width="10" height="470" as="geometry" />
        </mxCell>
        <mxCell id="FGPLI17WFUnC6xqe849k-121" value="ConnPoolImplBase" style="html=1;" vertex="1" parent="1">
          <mxGeometry x="256" y="1940" width="190" height="20" as="geometry" />
        </mxCell>
        <mxCell id="FGPLI17WFUnC6xqe849k-122" value="" style="html=1;points=[];perimeter=orthogonalPerimeter;" vertex="1" parent="1">
          <mxGeometry x="281" y="1990" width="10" height="470" as="geometry" />
        </mxCell>
        <mxCell id="FGPLI17WFUnC6xqe849k-123" value="" style="edgeStyle=orthogonalEdgeStyle;html=1;align=left;spacingLeft=2;endArrow=block;rounded=0;" edge="1" parent="1" target="FGPLI17WFUnC6xqe849k-120">
          <mxGeometry relative="1" as="geometry">
            <mxPoint x="111" y="2040" as="sourcePoint" />
            <Array as="points">
              <mxPoint x="215" y="2040" />
              <mxPoint x="215" y="2330" />
            </Array>
            <mxPoint x="111" y="2115" as="targetPoint" />
          </mxGeometry>
        </mxCell>
        <mxCell id="FGPLI17WFUnC6xqe849k-124" value="encodeHeaders" style="text;html=1;resizable=0;points=[];align=center;verticalAlign=middle;labelBackgroundColor=#ffffff;" vertex="1" connectable="0" parent="FGPLI17WFUnC6xqe849k-123">
          <mxGeometry x="-0.523" y="2" relative="1" as="geometry">
            <mxPoint x="-57" y="-15" as="offset" />
          </mxGeometry>
        </mxCell>
        <mxCell id="FGPLI17WFUnC6xqe849k-125" value="" style="edgeStyle=orthogonalEdgeStyle;html=1;align=left;spacingLeft=2;endArrow=block;rounded=0;" edge="1" parent="1" source="FGPLI17WFUnC6xqe849k-122" target="FGPLI17WFUnC6xqe849k-122">
          <mxGeometry relative="1" as="geometry">
            <mxPoint x="333" y="2040" as="sourcePoint" />
            <Array as="points">
              <mxPoint x="470" y="2040" />
              <mxPoint x="470" y="2310" />
            </Array>
            <mxPoint x="333" y="2115" as="targetPoint" />
          </mxGeometry>
        </mxCell>
        <mxCell id="FGPLI17WFUnC6xqe849k-126" value="newStream" style="text;html=1;resizable=0;points=[];align=center;verticalAlign=middle;labelBackgroundColor=#ffffff;" vertex="1" connectable="0" parent="FGPLI17WFUnC6xqe849k-125">
          <mxGeometry x="-0.523" y="2" relative="1" as="geometry">
            <mxPoint x="-18" y="2" as="offset" />
          </mxGeometry>
        </mxCell>
        <mxCell id="FGPLI17WFUnC6xqe849k-127" value="" style="edgeStyle=orthogonalEdgeStyle;html=1;align=left;spacingLeft=2;endArrow=block;rounded=0;" edge="1" parent="1" source="FGPLI17WFUnC6xqe849k-122" target="FGPLI17WFUnC6xqe849k-122">
          <mxGeometry relative="1" as="geometry">
            <mxPoint x="343" y="2050" as="sourcePoint" />
            <Array as="points">
              <mxPoint x="460" y="2060" />
              <mxPoint x="460" y="2300" />
            </Array>
            <mxPoint x="343" y="2125" as="targetPoint" />
          </mxGeometry>
        </mxCell>
        <mxCell id="FGPLI17WFUnC6xqe849k-128" value="&lt;span style=&quot;color: rgba(0 , 0 , 0 , 0) ; font-family: monospace ; font-size: 0px ; background-color: rgb(248 , 249 , 250)&quot;&gt;%3CmxGraphModel%3E%3Croot%3E%3CmxCell%20id%3D%220%22%2F%3E%3CmxCell%20id%3D%221%22%20parent%3D%220%22%2F%3E%3CmxCell%20id%3D%222%22%20value%3D%22%22%20style%3D%22edgeStyle%3DorthogonalEdgeStyle%3Bhtml%3D1%3Balign%3Dleft%3BspacingLeft%3D2%3BendArrow%3Dblock%3Brounded%3D0%3B%22%20edge%3D%221%22%20parent%3D%221%22%3E%3CmxGeometry%20relative%3D%221%22%20as%3D%22geometry%22%3E%3CmxPoint%20x%3D%22333%22%20y%3D%222040%22%20as%3D%22sourcePoint%22%2F%3E%3CArray%20as%3D%22points%22%3E%3CmxPoint%20x%3D%22437%22%20y%3D%222040%22%2F%3E%3CmxPoint%20x%3D%22437%22%20y%3D%222115%22%2F%3E%3C%2FArray%3E%3CmxPoint%20x%3D%22333%22%20y%3D%222115%22%20as%3D%22targetPoint%22%2F%3E%3C%2FmxGeometry%3E%3C%2FmxCell%3E%3CmxCell%20id%3D%223%22%20value%3D%22newStream%22%20style%3D%22text%3Bhtml%3D1%3Bresizable%3D0%3Bpoints%3D%5B%5D%3Balign%3Dcenter%3BverticalAlign%3Dmiddle%3BlabelBackgroundColor%3D%23ffffff%3B%22%20vertex%3D%221%22%20connectable%3D%220%22%20parent%3D%222%22%3E%3CmxGeometry%20x%3D%22-0.523%22%20y%3D%222%22%20relative%3D%221%22%20as%3D%22geometry%22%3E%3CmxPoint%20x%3D%22-18%22%20y%3D%222%22%20as%3D%22offset%22%2F%3E%3C%2FmxGeometry%3E%3C%2FmxCell%3E%3C%2Froot%3E%3C%2FmxGraphModel%3E&lt;/span&gt;" style="text;html=1;resizable=0;points=[];align=center;verticalAlign=middle;labelBackgroundColor=#ffffff;" vertex="1" connectable="0" parent="FGPLI17WFUnC6xqe849k-127">
          <mxGeometry x="-0.523" y="2" relative="1" as="geometry">
            <mxPoint x="-18" y="2" as="offset" />
          </mxGeometry>
        </mxCell>
        <mxCell id="FGPLI17WFUnC6xqe849k-129" value="tryCreateNewConnections" style="text;html=1;resizable=0;points=[];align=center;verticalAlign=middle;labelBackgroundColor=#ffffff;" vertex="1" connectable="0" parent="FGPLI17WFUnC6xqe849k-127">
          <mxGeometry x="-0.7336" y="-2" relative="1" as="geometry">
            <mxPoint x="3" y="-2" as="offset" />
          </mxGeometry>
        </mxCell>
        <mxCell id="FGPLI17WFUnC6xqe849k-130" value="" style="edgeStyle=orthogonalEdgeStyle;html=1;align=left;spacingLeft=2;endArrow=block;rounded=0;" edge="1" parent="1" source="FGPLI17WFUnC6xqe849k-122" target="FGPLI17WFUnC6xqe849k-122">
          <mxGeometry relative="1" as="geometry">
            <mxPoint x="301" y="2070" as="sourcePoint" />
            <Array as="points">
              <mxPoint x="450" y="2080" />
              <mxPoint x="450" y="2290" />
            </Array>
            <mxPoint x="301" y="2300" as="targetPoint" />
          </mxGeometry>
        </mxCell>
        <mxCell id="FGPLI17WFUnC6xqe849k-131" value="&lt;span style=&quot;color: rgba(0 , 0 , 0 , 0) ; font-family: monospace ; font-size: 0px ; background-color: rgb(248 , 249 , 250)&quot;&gt;%3CmxGraphModel%3E%3Croot%3E%3CmxCell%20id%3D%220%22%2F%3E%3CmxCell%20id%3D%221%22%20parent%3D%220%22%2F%3E%3CmxCell%20id%3D%222%22%20value%3D%22%22%20style%3D%22edgeStyle%3DorthogonalEdgeStyle%3Bhtml%3D1%3Balign%3Dleft%3BspacingLeft%3D2%3BendArrow%3Dblock%3Brounded%3D0%3B%22%20edge%3D%221%22%20parent%3D%221%22%3E%3CmxGeometry%20relative%3D%221%22%20as%3D%22geometry%22%3E%3CmxPoint%20x%3D%22333%22%20y%3D%222040%22%20as%3D%22sourcePoint%22%2F%3E%3CArray%20as%3D%22points%22%3E%3CmxPoint%20x%3D%22437%22%20y%3D%222040%22%2F%3E%3CmxPoint%20x%3D%22437%22%20y%3D%222115%22%2F%3E%3C%2FArray%3E%3CmxPoint%20x%3D%22333%22%20y%3D%222115%22%20as%3D%22targetPoint%22%2F%3E%3C%2FmxGeometry%3E%3C%2FmxCell%3E%3CmxCell%20id%3D%223%22%20value%3D%22newStream%22%20style%3D%22text%3Bhtml%3D1%3Bresizable%3D0%3Bpoints%3D%5B%5D%3Balign%3Dcenter%3BverticalAlign%3Dmiddle%3BlabelBackgroundColor%3D%23ffffff%3B%22%20vertex%3D%221%22%20connectable%3D%220%22%20parent%3D%222%22%3E%3CmxGeometry%20x%3D%22-0.523%22%20y%3D%222%22%20relative%3D%221%22%20as%3D%22geometry%22%3E%3CmxPoint%20x%3D%22-18%22%20y%3D%222%22%20as%3D%22offset%22%2F%3E%3C%2FmxGeometry%3E%3C%2FmxCell%3E%3C%2Froot%3E%3C%2FmxGraphModel%3E&lt;/span&gt;" style="text;html=1;resizable=0;points=[];align=center;verticalAlign=middle;labelBackgroundColor=#ffffff;" vertex="1" connectable="0" parent="FGPLI17WFUnC6xqe849k-130">
          <mxGeometry x="-0.523" y="2" relative="1" as="geometry">
            <mxPoint x="-18" y="2" as="offset" />
          </mxGeometry>
        </mxCell>
        <mxCell id="FGPLI17WFUnC6xqe849k-132" value="tryCreateNewConnection" style="text;html=1;resizable=0;points=[];align=center;verticalAlign=middle;labelBackgroundColor=#ffffff;" vertex="1" connectable="0" parent="FGPLI17WFUnC6xqe849k-130">
          <mxGeometry x="-0.7336" y="-2" relative="1" as="geometry">
            <mxPoint x="10" y="-2" as="offset" />
          </mxGeometry>
        </mxCell>
        <mxCell id="FGPLI17WFUnC6xqe849k-133" value="instantiateActiveClient" style="text;html=1;resizable=0;points=[];autosize=1;align=left;verticalAlign=top;spacingTop=-4;" vertex="1" parent="1">
          <mxGeometry x="304" y="2100" width="130" height="20" as="geometry" />
        </mxCell>
        <mxCell id="FGPLI17WFUnC6xqe849k-134" style="edgeStyle=orthogonalEdgeStyle;rounded=0;orthogonalLoop=1;jettySize=auto;html=1;exitX=0.5;exitY=0;exitDx=0;exitDy=0;entryX=0.5;entryY=1;entryDx=0;entryDy=0;" edge="1" parent="1" source="FGPLI17WFUnC6xqe849k-135" target="FGPLI17WFUnC6xqe849k-136">
          <mxGeometry relative="1" as="geometry" />
        </mxCell>
        <mxCell id="FGPLI17WFUnC6xqe849k-135" value="ActiveClient" style="html=1;" vertex="1" parent="1">
          <mxGeometry x="469" y="1940" width="122" height="20" as="geometry" />
        </mxCell>
        <mxCell id="FGPLI17WFUnC6xqe849k-136" value="Envoy::ConnectionPool::ActiveClient" style="html=1;" vertex="1" parent="1">
          <mxGeometry x="423" y="1900" width="219" height="20" as="geometry" />
        </mxCell>
        <mxCell id="FGPLI17WFUnC6xqe849k-137" value="" style="html=1;points=[];perimeter=orthogonalPerimeter;" vertex="1" parent="1">
          <mxGeometry x="538.5" y="1990" width="10" height="470" as="geometry" />
        </mxCell>
        <mxCell id="FGPLI17WFUnC6xqe849k-138" value="" style="endArrow=classic;html=1;entryX=-0.1;entryY=0.283;entryDx=0;entryDy=0;entryPerimeter=0;" edge="1" parent="1" source="FGPLI17WFUnC6xqe849k-122" target="FGPLI17WFUnC6xqe849k-137">
          <mxGeometry width="50" height="50" relative="1" as="geometry">
            <mxPoint x="340" y="2180" as="sourcePoint" />
            <mxPoint x="390" y="2130" as="targetPoint" />
          </mxGeometry>
        </mxCell>
        <mxCell id="FGPLI17WFUnC6xqe849k-139" value="" style="edgeStyle=orthogonalEdgeStyle;html=1;align=left;spacingLeft=2;endArrow=block;rounded=0;" edge="1" parent="1" source="FGPLI17WFUnC6xqe849k-137" target="FGPLI17WFUnC6xqe849k-137">
          <mxGeometry relative="1" as="geometry">
            <mxPoint x="577" y="2120" as="sourcePoint" />
            <Array as="points">
              <mxPoint x="660" y="2120" />
              <mxPoint x="660" y="2190" />
            </Array>
            <mxPoint x="577" y="2410" as="targetPoint" />
          </mxGeometry>
        </mxCell>
        <mxCell id="FGPLI17WFUnC6xqe849k-140" value="ActiveClient" style="text;html=1;resizable=0;points=[];align=center;verticalAlign=middle;labelBackgroundColor=#ffffff;" vertex="1" connectable="0" parent="FGPLI17WFUnC6xqe849k-139">
          <mxGeometry x="-0.523" y="2" relative="1" as="geometry">
            <mxPoint x="-6" y="2" as="offset" />
          </mxGeometry>
        </mxCell>
        <mxCell id="FGPLI17WFUnC6xqe849k-141" style="edgeStyle=orthogonalEdgeStyle;rounded=0;orthogonalLoop=1;jettySize=auto;html=1;exitX=0.75;exitY=0;exitDx=0;exitDy=0;entryX=0.5;entryY=1;entryDx=0;entryDy=0;" edge="1" parent="1" source="FGPLI17WFUnC6xqe849k-143" target="FGPLI17WFUnC6xqe849k-145">
          <mxGeometry relative="1" as="geometry" />
        </mxCell>
        <mxCell id="FGPLI17WFUnC6xqe849k-142" style="edgeStyle=orthogonalEdgeStyle;rounded=0;orthogonalLoop=1;jettySize=auto;html=1;exitX=0.25;exitY=0;exitDx=0;exitDy=0;entryX=0.75;entryY=1;entryDx=0;entryDy=0;" edge="1" parent="1" source="FGPLI17WFUnC6xqe849k-143" target="FGPLI17WFUnC6xqe849k-144">
          <mxGeometry relative="1" as="geometry" />
        </mxCell>
        <mxCell id="FGPLI17WFUnC6xqe849k-143" value="HostImpl" style="html=1;" vertex="1" parent="1">
          <mxGeometry x="700" y="1940" width="122" height="20" as="geometry" />
        </mxCell>
        <mxCell id="FGPLI17WFUnC6xqe849k-144" value="Host" style="html=1;" vertex="1" parent="1">
          <mxGeometry x="674.5" y="1900" width="50" height="20" as="geometry" />
        </mxCell>
        <mxCell id="FGPLI17WFUnC6xqe849k-145" value="HostDescriptionImpl" style="html=1;" vertex="1" parent="1">
          <mxGeometry x="732" y="1900" width="113" height="20" as="geometry" />
        </mxCell>
        <mxCell id="FGPLI17WFUnC6xqe849k-146" value="" style="html=1;points=[];perimeter=orthogonalPerimeter;" vertex="1" parent="1">
          <mxGeometry x="719.5" y="1990" width="10" height="470" as="geometry" />
        </mxCell>
        <mxCell id="FGPLI17WFUnC6xqe849k-147" value="" style="endArrow=classic;html=1;entryX=-0.15;entryY=0.309;entryDx=0;entryDy=0;entryPerimeter=0;" edge="1" parent="1" source="FGPLI17WFUnC6xqe849k-137" target="FGPLI17WFUnC6xqe849k-146">
          <mxGeometry width="50" height="50" relative="1" as="geometry">
            <mxPoint x="560" y="2180" as="sourcePoint" />
            <mxPoint x="721" y="2129" as="targetPoint" />
          </mxGeometry>
        </mxCell>
        <mxCell id="FGPLI17WFUnC6xqe849k-148" value="" style="edgeStyle=orthogonalEdgeStyle;html=1;align=left;spacingLeft=2;endArrow=block;rounded=0;" edge="1" parent="1">
          <mxGeometry relative="1" as="geometry">
            <mxPoint x="729.5" y="2135" as="sourcePoint" />
            <Array as="points">
              <mxPoint x="841" y="2135" />
              <mxPoint x="841" y="2175" />
            </Array>
            <mxPoint x="729.5" y="2175" as="targetPoint" />
          </mxGeometry>
        </mxCell>
        <mxCell id="FGPLI17WFUnC6xqe849k-149" value="createConnection" style="text;html=1;resizable=0;points=[];align=center;verticalAlign=middle;labelBackgroundColor=#ffffff;" vertex="1" connectable="0" parent="FGPLI17WFUnC6xqe849k-148">
          <mxGeometry x="-0.523" y="2" relative="1" as="geometry">
            <mxPoint x="-6" y="2" as="offset" />
          </mxGeometry>
        </mxCell>
        <mxCell id="FGPLI17WFUnC6xqe849k-150" value="" style="edgeStyle=orthogonalEdgeStyle;html=1;align=left;spacingLeft=2;endArrow=block;rounded=0;" edge="1" parent="1" target="FGPLI17WFUnC6xqe849k-174">
          <mxGeometry relative="1" as="geometry">
            <mxPoint x="319.9999999999998" y="393" as="sourcePoint" />
            <Array as="points">
              <mxPoint x="470" y="393" />
              <mxPoint x="470" y="450" />
            </Array>
            <mxPoint x="325" y="413" as="targetPoint" />
          </mxGeometry>
        </mxCell>
        <mxCell id="FGPLI17WFUnC6xqe849k-151" value="newActiveConnection" style="text;html=1;resizable=0;points=[];align=center;verticalAlign=middle;labelBackgroundColor=#ffffff;" vertex="1" connectable="0" parent="FGPLI17WFUnC6xqe849k-150">
          <mxGeometry x="-0.2941" y="2" relative="1" as="geometry">
            <mxPoint x="-31" y="-1" as="offset" />
          </mxGeometry>
        </mxCell>
        <mxCell id="FGPLI17WFUnC6xqe849k-152" value="" style="html=1;points=[];perimeter=orthogonalPerimeter;" vertex="1" parent="1">
          <mxGeometry x="315" y="453" width="10" height="40" as="geometry" />
        </mxCell>
        <mxCell id="FGPLI17WFUnC6xqe849k-153" value="" style="edgeStyle=orthogonalEdgeStyle;html=1;align=left;spacingLeft=2;endArrow=block;rounded=0;" edge="1" parent="1" target="FGPLI17WFUnC6xqe849k-174">
          <mxGeometry relative="1" as="geometry">
            <mxPoint x="319.9999999999998" y="368" as="sourcePoint" />
            <Array as="points">
              <mxPoint x="480" y="368" />
              <mxPoint x="480" y="460" />
            </Array>
            <mxPoint x="325" y="388" as="targetPoint" />
          </mxGeometry>
        </mxCell>
        <mxCell id="FGPLI17WFUnC6xqe849k-154" value="" style="html=1;points=[];perimeter=orthogonalPerimeter;" vertex="1" parent="1">
          <mxGeometry x="315" y="173" width="10" height="40" as="geometry" />
        </mxCell>
        <mxCell id="FGPLI17WFUnC6xqe849k-155" value="" style="edgeStyle=orthogonalEdgeStyle;html=1;align=left;spacingLeft=2;endArrow=block;rounded=0;" edge="1" parent="1" target="FGPLI17WFUnC6xqe849k-174">
          <mxGeometry relative="1" as="geometry">
            <mxPoint x="319.9999999999998" y="153" as="sourcePoint" />
            <Array as="points">
              <mxPoint x="510" y="153" />
              <mxPoint x="510" y="510" />
            </Array>
            <mxPoint x="340" y="173" as="targetPoint" />
          </mxGeometry>
        </mxCell>
        <mxCell id="FGPLI17WFUnC6xqe849k-156" value="onAccept" style="text;html=1;resizable=0;points=[];align=center;verticalAlign=middle;labelBackgroundColor=#ffffff;" vertex="1" connectable="0" parent="FGPLI17WFUnC6xqe849k-155">
          <mxGeometry x="-0.7113" y="1" relative="1" as="geometry">
            <mxPoint x="-27" y="-2" as="offset" />
          </mxGeometry>
        </mxCell>
        <mxCell id="FGPLI17WFUnC6xqe849k-157" value="" style="edgeStyle=orthogonalEdgeStyle;html=1;align=left;spacingLeft=2;endArrow=block;rounded=0;" edge="1" parent="1" target="FGPLI17WFUnC6xqe849k-174">
          <mxGeometry relative="1" as="geometry">
            <mxPoint x="319.9999999999998" y="213" as="sourcePoint" />
            <Array as="points">
              <mxPoint x="320" y="170" />
              <mxPoint x="500" y="170" />
              <mxPoint x="500" y="500" />
            </Array>
            <mxPoint x="350" y="233" as="targetPoint" />
          </mxGeometry>
        </mxCell>
        <mxCell id="FGPLI17WFUnC6xqe849k-158" value="&lt;span style=&quot;text-align: left ; background-color: rgb(248 , 249 , 250)&quot;&gt;onAcceptWorker&lt;/span&gt;" style="text;html=1;resizable=0;points=[];align=center;verticalAlign=middle;labelBackgroundColor=#ffffff;" vertex="1" connectable="0" parent="FGPLI17WFUnC6xqe849k-157">
          <mxGeometry x="-0.7196" y="2" relative="1" as="geometry">
            <mxPoint x="22" y="2" as="offset" />
          </mxGeometry>
        </mxCell>
        <mxCell id="FGPLI17WFUnC6xqe849k-159" value="" style="html=1;points=[];perimeter=orthogonalPerimeter;" vertex="1" parent="1">
          <mxGeometry x="757" y="288" width="10" height="40" as="geometry" />
        </mxCell>
        <mxCell id="FGPLI17WFUnC6xqe849k-160" value="onAccept" style="edgeStyle=orthogonalEdgeStyle;html=1;align=left;spacingLeft=2;endArrow=block;rounded=0;entryX=1;entryY=0;" edge="1" parent="1" target="FGPLI17WFUnC6xqe849k-159">
          <mxGeometry relative="1" as="geometry">
            <mxPoint x="762" y="268" as="sourcePoint" />
            <Array as="points">
              <mxPoint x="787" y="268" />
            </Array>
          </mxGeometry>
        </mxCell>
        <mxCell id="FGPLI17WFUnC6xqe849k-161" value="" style="html=1;points=[];perimeter=orthogonalPerimeter;" vertex="1" parent="1">
          <mxGeometry x="570" y="328" width="10" height="40" as="geometry" />
        </mxCell>
        <mxCell id="FGPLI17WFUnC6xqe849k-162" value="" style="html=1;points=[];perimeter=orthogonalPerimeter;" vertex="1" parent="1">
          <mxGeometry x="570" y="252" width="10" height="40" as="geometry" />
        </mxCell>
        <mxCell id="FGPLI17WFUnC6xqe849k-163" value="" style="edgeStyle=orthogonalEdgeStyle;html=1;align=left;spacingLeft=2;endArrow=block;rounded=0;" edge="1" parent="1" target="FGPLI17WFUnC6xqe849k-176">
          <mxGeometry relative="1" as="geometry">
            <mxPoint x="574.9999999999998" y="232" as="sourcePoint" />
            <Array as="points">
              <mxPoint x="730" y="232" />
              <mxPoint x="730" y="480" />
            </Array>
            <mxPoint x="590" y="252" as="targetPoint" />
          </mxGeometry>
        </mxCell>
        <mxCell id="FGPLI17WFUnC6xqe849k-164" value="&lt;span style=&quot;font-size: 11px ; text-align: left&quot;&gt;continueFilterChain&lt;/span&gt;" style="text;html=1;resizable=0;points=[];align=center;verticalAlign=middle;labelBackgroundColor=#ffffff;" vertex="1" connectable="0" parent="FGPLI17WFUnC6xqe849k-163">
          <mxGeometry x="-0.614" y="2" relative="1" as="geometry">
            <mxPoint x="-18" as="offset" />
          </mxGeometry>
        </mxCell>
        <mxCell id="FGPLI17WFUnC6xqe849k-165" value="" style="edgeStyle=orthogonalEdgeStyle;html=1;align=left;spacingLeft=2;endArrow=block;rounded=0;" edge="1" parent="1" target="FGPLI17WFUnC6xqe849k-176">
          <mxGeometry relative="1" as="geometry">
            <mxPoint x="574.9999999999998" y="308" as="sourcePoint" />
            <Array as="points">
              <mxPoint x="720" y="308" />
              <mxPoint x="720" y="470" />
            </Array>
            <mxPoint x="580" y="369" as="targetPoint" />
          </mxGeometry>
        </mxCell>
        <mxCell id="FGPLI17WFUnC6xqe849k-166" value="&lt;span style=&quot;font-size: 11px ; text-align: left&quot;&gt;newConnnection&lt;/span&gt;" style="text;html=1;resizable=0;points=[];align=center;verticalAlign=middle;labelBackgroundColor=#ffffff;" vertex="1" connectable="0" parent="FGPLI17WFUnC6xqe849k-165">
          <mxGeometry x="-0.7514" y="2" relative="1" as="geometry">
            <mxPoint x="32" y="2" as="offset" />
          </mxGeometry>
        </mxCell>
        <mxCell id="FGPLI17WFUnC6xqe849k-167" value="" style="edgeStyle=orthogonalEdgeStyle;html=1;align=left;spacingLeft=2;endArrow=block;rounded=0;" edge="1" parent="1" target="FGPLI17WFUnC6xqe849k-174">
          <mxGeometry relative="1" as="geometry">
            <mxPoint x="319.9999999999998" y="273" as="sourcePoint" />
            <Array as="points">
              <mxPoint x="320" y="190" />
              <mxPoint x="490" y="190" />
              <mxPoint x="490" y="490" />
            </Array>
            <mxPoint x="345" y="330" as="targetPoint" />
          </mxGeometry>
        </mxCell>
        <mxCell id="FGPLI17WFUnC6xqe849k-168" value="&lt;span style=&quot;text-align: left ; background-color: rgb(248 , 249 , 250)&quot;&gt;onSocketAccepted&lt;/span&gt;" style="text;html=1;resizable=0;points=[];align=center;verticalAlign=middle;labelBackgroundColor=#ffffff;" vertex="1" connectable="0" parent="FGPLI17WFUnC6xqe849k-167">
          <mxGeometry x="-0.7963" relative="1" as="geometry">
            <mxPoint x="70" y="-16" as="offset" />
          </mxGeometry>
        </mxCell>
        <mxCell id="FGPLI17WFUnC6xqe849k-169" value="" style="html=1;points=[];perimeter=orthogonalPerimeter;" vertex="1" parent="1">
          <mxGeometry x="315" y="233" width="10" height="40" as="geometry" />
        </mxCell>
        <mxCell id="FGPLI17WFUnC6xqe849k-170" value="" style="html=1;points=[];perimeter=orthogonalPerimeter;" vertex="1" parent="1">
          <mxGeometry x="315" y="202" width="10" height="40" as="geometry" />
        </mxCell>
        <mxCell id="FGPLI17WFUnC6xqe849k-171" style="edgeStyle=orthogonalEdgeStyle;rounded=0;orthogonalLoop=1;jettySize=auto;html=1;exitX=0.5;exitY=0;exitDx=0;exitDy=0;" edge="1" parent="1" source="FGPLI17WFUnC6xqe849k-172" target="FGPLI17WFUnC6xqe849k-178">
          <mxGeometry relative="1" as="geometry" />
        </mxCell>
        <mxCell id="FGPLI17WFUnC6xqe849k-172" value="ActiveTcpListener" style="html=1;" vertex="1" parent="1">
          <mxGeometry x="270" y="70" width="110" height="20" as="geometry" />
        </mxCell>
        <mxCell id="FGPLI17WFUnC6xqe849k-173" value="" style="edgeStyle=orthogonalEdgeStyle;rounded=0;orthogonalLoop=1;jettySize=auto;html=1;" edge="1" parent="1">
          <mxGeometry relative="1" as="geometry">
            <Array as="points">
              <mxPoint x="540" y="214" />
              <mxPoint x="540" y="214" />
            </Array>
            <mxPoint x="324.9999999999998" y="214" as="sourcePoint" />
            <mxPoint x="569.9999999999998" y="214" as="targetPoint" />
          </mxGeometry>
        </mxCell>
        <mxCell id="FGPLI17WFUnC6xqe849k-174" value="" style="html=1;points=[];perimeter=orthogonalPerimeter;" vertex="1" parent="1">
          <mxGeometry x="315" y="100" width="10" height="470" as="geometry" />
        </mxCell>
        <mxCell id="FGPLI17WFUnC6xqe849k-175" value="" style="edgeStyle=orthogonalEdgeStyle;rounded=0;orthogonalLoop=1;jettySize=auto;html=1;" edge="1" parent="1">
          <mxGeometry relative="1" as="geometry">
            <Array as="points">
              <mxPoint x="667" y="268" />
              <mxPoint x="667" y="268" />
            </Array>
            <mxPoint x="579.9999999999998" y="268" as="sourcePoint" />
            <mxPoint x="757" y="268" as="targetPoint" />
          </mxGeometry>
        </mxCell>
        <mxCell id="FGPLI17WFUnC6xqe849k-176" value="" style="html=1;points=[];perimeter=orthogonalPerimeter;" vertex="1" parent="1">
          <mxGeometry x="570" y="100" width="10" height="409" as="geometry" />
        </mxCell>
        <mxCell id="FGPLI17WFUnC6xqe849k-177" value="" style="html=1;points=[];perimeter=orthogonalPerimeter;" vertex="1" parent="1">
          <mxGeometry x="757" y="100" width="10" height="409" as="geometry" />
        </mxCell>
        <mxCell id="FGPLI17WFUnC6xqe849k-178" value="ActiveStreamListnerBase" style="html=1;" vertex="1" parent="1">
          <mxGeometry x="250" y="30" width="150" height="20" as="geometry" />
        </mxCell>
        <mxCell id="FGPLI17WFUnC6xqe849k-179" value="ActiveSocket" style="html=1;" vertex="1" parent="1">
          <mxGeometry x="507" y="70" width="110" height="20" as="geometry" />
        </mxCell>
        <mxCell id="FGPLI17WFUnC6xqe849k-180" value="GenericListenerFilter" style="html=1;" vertex="1" parent="1">
          <mxGeometry x="702" y="70" width="120" height="20" as="geometry" />
        </mxCell>
        <mxCell id="FGPLI17WFUnC6xqe849k-181" value="" style="endArrow=classic;html=1;" edge="1" parent="1">
          <mxGeometry width="50" height="50" relative="1" as="geometry">
            <mxPoint x="756" y="288" as="sourcePoint" />
            <mxPoint x="579.9999999999998" y="288" as="targetPoint" />
          </mxGeometry>
        </mxCell>
        <mxCell id="FGPLI17WFUnC6xqe849k-182" value="go through listener filter chain" style="text;html=1;resizable=0;points=[];autosize=1;align=left;verticalAlign=top;spacingTop=-4;" vertex="1" parent="1">
          <mxGeometry x="587" y="268" width="170" height="20" as="geometry" />
        </mxCell>
        <mxCell id="FGPLI17WFUnC6xqe849k-183" value="" style="html=1;points=[];perimeter=orthogonalPerimeter;" vertex="1" parent="1">
          <mxGeometry x="100" y="124" width="10" height="40" as="geometry" />
        </mxCell>
        <mxCell id="FGPLI17WFUnC6xqe849k-184" value="" style="edgeStyle=orthogonalEdgeStyle;html=1;align=left;spacingLeft=2;endArrow=block;rounded=0;" edge="1" parent="1" target="FGPLI17WFUnC6xqe849k-187">
          <mxGeometry relative="1" as="geometry">
            <mxPoint x="104" y="104" as="sourcePoint" />
            <Array as="points">
              <mxPoint x="210" y="104" />
              <mxPoint x="210" y="550" />
            </Array>
            <mxPoint x="109" y="124" as="targetPoint" />
          </mxGeometry>
        </mxCell>
        <mxCell id="FGPLI17WFUnC6xqe849k-185" value="&lt;span style=&quot;font-size: 11px ; text-align: left&quot;&gt;onSocketEvent&lt;/span&gt;" style="text;html=1;resizable=0;points=[];align=center;verticalAlign=middle;labelBackgroundColor=#ffffff;" vertex="1" connectable="0" parent="FGPLI17WFUnC6xqe849k-184">
          <mxGeometry x="-0.7608" relative="1" as="geometry">
            <mxPoint x="-22" y="-4" as="offset" />
          </mxGeometry>
        </mxCell>
        <mxCell id="FGPLI17WFUnC6xqe849k-186" value="TcpListenerImpl" style="html=1;" vertex="1" parent="1">
          <mxGeometry x="60" y="70" width="110" height="20" as="geometry" />
        </mxCell>
        <mxCell id="FGPLI17WFUnC6xqe849k-187" value="" style="html=1;points=[];perimeter=orthogonalPerimeter;" vertex="1" parent="1">
          <mxGeometry x="100" y="100" width="10" height="460" as="geometry" />
        </mxCell>
        <mxCell id="FGPLI17WFUnC6xqe849k-188" value="" style="endArrow=classic;html=1;entryX=0.05;entryY=0.116;entryDx=0;entryDy=0;entryPerimeter=0;" edge="1" parent="1" source="FGPLI17WFUnC6xqe849k-187" target="FGPLI17WFUnC6xqe849k-174">
          <mxGeometry width="50" height="50" relative="1" as="geometry">
            <mxPoint x="60" y="580" as="sourcePoint" />
            <mxPoint x="310" y="155" as="targetPoint" />
          </mxGeometry>
        </mxCell>
        <mxCell id="FGPLI17WFUnC6xqe849k-189" value="" style="endArrow=classic;html=1;exitX=-0.1;exitY=0.782;exitDx=0;exitDy=0;exitPerimeter=0;entryX=0.9;entryY=0.782;entryDx=0;entryDy=0;entryPerimeter=0;" edge="1" parent="1">
          <mxGeometry width="50" height="50" relative="1" as="geometry">
            <mxPoint x="569.9999999999998" y="339.83799999999997" as="sourcePoint" />
            <mxPoint x="324.9999999999998" y="339.83799999999997" as="targetPoint" />
          </mxGeometry>
        </mxCell>
        <mxCell id="FGPLI17WFUnC6xqe849k-190" value="&lt;span style=&quot;font-size: 11px ; text-align: left&quot;&gt;newConnection&lt;/span&gt;" style="text;html=1;resizable=0;points=[];align=center;verticalAlign=middle;labelBackgroundColor=#ffffff;" vertex="1" connectable="0" parent="FGPLI17WFUnC6xqe849k-189">
          <mxGeometry x="0.5102" y="2" relative="1" as="geometry">
            <mxPoint x="-5" y="26" as="offset" />
          </mxGeometry>
        </mxCell>
        <mxCell id="FGPLI17WFUnC6xqe849k-191" value="" style="shape=link;html=1;" edge="1" parent="1">
          <mxGeometry width="50" height="50" relative="1" as="geometry">
            <mxPoint y="589.9999999999998" as="sourcePoint" />
            <mxPoint x="840" y="589.9999999999998" as="targetPoint" />
          </mxGeometry>
        </mxCell>
        <mxCell id="FGPLI17WFUnC6xqe849k-192" value="&lt;span style=&quot;background-color: rgb(255 , 255 , 255)&quot;&gt;dispatcher().createServerConnection&lt;/span&gt;" style="text;html=1;resizable=0;points=[];autosize=1;align=left;verticalAlign=top;spacingTop=-4;" vertex="1" parent="1">
          <mxGeometry x="270" y="410" width="210" height="20" as="geometry" />
        </mxCell>
        <mxCell id="FGPLI17WFUnC6xqe849k-193" style="edgeStyle=orthogonalEdgeStyle;rounded=0;orthogonalLoop=1;jettySize=auto;html=1;exitX=0.5;exitY=0;exitDx=0;exitDy=0;" edge="1" parent="1" source="FGPLI17WFUnC6xqe849k-194" target="FGPLI17WFUnC6xqe849k-195">
          <mxGeometry relative="1" as="geometry" />
        </mxCell>
        <mxCell id="FGPLI17WFUnC6xqe849k-194" value="ServerConnectionImpl" style="html=1;" vertex="1" parent="1">
          <mxGeometry x="41" y="670" width="130" height="20" as="geometry" />
        </mxCell>
        <mxCell id="FGPLI17WFUnC6xqe849k-195" value="ConnectionImpl" style="html=1;" vertex="1" parent="1">
          <mxGeometry x="41" y="630" width="130" height="20" as="geometry" />
        </mxCell>
        <mxCell id="FGPLI17WFUnC6xqe849k-196" value="" style="html=1;points=[];perimeter=orthogonalPerimeter;" vertex="1" parent="1">
          <mxGeometry x="70" y="730" width="10" height="470" as="geometry" />
        </mxCell>
        <mxCell id="FGPLI17WFUnC6xqe849k-197" value="" style="edgeStyle=orthogonalEdgeStyle;html=1;align=left;spacingLeft=2;endArrow=block;rounded=0;" edge="1" parent="1" source="FGPLI17WFUnC6xqe849k-196" target="FGPLI17WFUnC6xqe849k-196">
          <mxGeometry relative="1" as="geometry">
            <mxPoint x="125" y="740" as="sourcePoint" />
            <Array as="points">
              <mxPoint x="220" y="740" />
              <mxPoint x="220" y="820" />
            </Array>
          </mxGeometry>
        </mxCell>
        <mxCell id="FGPLI17WFUnC6xqe849k-198" value="ConnectionImpl" style="text;html=1;resizable=0;points=[];align=center;verticalAlign=middle;labelBackgroundColor=#ffffff;" vertex="1" connectable="0" parent="FGPLI17WFUnC6xqe849k-197">
          <mxGeometry x="-0.5525" relative="1" as="geometry">
            <mxPoint x="-24" as="offset" />
          </mxGeometry>
        </mxCell>
        <mxCell id="FGPLI17WFUnC6xqe849k-199" value="&lt;div style=&quot;font-family: &amp;#34;droid sans mono&amp;#34; , monospace , monospace , &amp;#34;droid sans fallback&amp;#34; ; line-height: 171% ; white-space: pre ; font-size: 7px&quot;&gt;&lt;div&gt;&lt;span style=&quot;background-color: rgb(255 , 255 , 255)&quot;&gt;socket_-&amp;gt;ioHandle().initializeFileEvent(&lt;/span&gt;&lt;/div&gt;&lt;div&gt;&lt;span style=&quot;background-color: rgb(255 , 255 , 255)&quot;&gt;      dispatcher_, [this](uint32_t events) -&amp;gt; void { &lt;b&gt;onFileEvent&lt;/b&gt;(events); }, trigger,&lt;/span&gt;&lt;/div&gt;&lt;div&gt;&lt;span style=&quot;background-color: rgb(255 , 255 , 255)&quot;&gt;      Event::FileReadyType::Read | Event::FileReadyType::Write);&lt;/span&gt;&lt;/div&gt;&lt;/div&gt;" style="text;html=1;resizable=0;points=[];autosize=1;align=left;verticalAlign=top;spacingTop=-4;" vertex="1" parent="1">
          <mxGeometry x="10" y="760" width="370" height="40" as="geometry" />
        </mxCell>
        <mxCell id="FGPLI17WFUnC6xqe849k-200" value="" style="endArrow=classic;html=1;" edge="1" parent="1" source="FGPLI17WFUnC6xqe849k-196" target="FGPLI17WFUnC6xqe849k-196">
          <mxGeometry width="50" height="50" relative="1" as="geometry">
            <mxPoint x="79" y="890" as="sourcePoint" />
            <mxPoint x="75" y="1040" as="targetPoint" />
            <Array as="points">
              <mxPoint x="150" y="860" />
              <mxPoint x="230" y="860" />
              <mxPoint x="230" y="950" />
              <mxPoint x="230" y="1100" />
              <mxPoint x="150" y="1100" />
            </Array>
          </mxGeometry>
        </mxCell>
        <mxCell id="FGPLI17WFUnC6xqe849k-201" value="onFileEvent" style="text;html=1;resizable=0;points=[];align=center;verticalAlign=middle;labelBackgroundColor=#ffffff;" vertex="1" connectable="0" parent="FGPLI17WFUnC6xqe849k-200">
          <mxGeometry x="-0.6364" y="1" relative="1" as="geometry">
            <mxPoint x="-28" y="1" as="offset" />
          </mxGeometry>
        </mxCell>
        <mxCell id="FGPLI17WFUnC6xqe849k-202" value="" style="edgeStyle=orthogonalEdgeStyle;html=1;align=left;spacingLeft=2;endArrow=block;rounded=0;" edge="1" parent="1" source="FGPLI17WFUnC6xqe849k-196" target="FGPLI17WFUnC6xqe849k-196">
          <mxGeometry relative="1" as="geometry">
            <mxPoint x="80" y="910" as="sourcePoint" />
            <Array as="points">
              <mxPoint x="210" y="880" />
              <mxPoint x="210" y="990" />
            </Array>
            <mxPoint x="85" y="930" as="targetPoint" />
          </mxGeometry>
        </mxCell>
        <mxCell id="FGPLI17WFUnC6xqe849k-203" value="onReadReady" style="text;html=1;resizable=0;points=[];align=center;verticalAlign=middle;labelBackgroundColor=#ffffff;" vertex="1" connectable="0" parent="FGPLI17WFUnC6xqe849k-202">
          <mxGeometry x="-0.3833" y="2" relative="1" as="geometry">
            <mxPoint x="-24" y="2" as="offset" />
          </mxGeometry>
        </mxCell>
        <mxCell id="FGPLI17WFUnC6xqe849k-204" value="or" style="text;html=1;resizable=0;points=[];autosize=1;align=left;verticalAlign=top;spacingTop=-4;" vertex="1" parent="1">
          <mxGeometry x="85" y="997" width="30" height="20" as="geometry" />
        </mxCell>
        <mxCell id="FGPLI17WFUnC6xqe849k-205" value="" style="edgeStyle=orthogonalEdgeStyle;html=1;align=left;spacingLeft=2;endArrow=block;rounded=0;" edge="1" parent="1" source="FGPLI17WFUnC6xqe849k-196" target="FGPLI17WFUnC6xqe849k-196">
          <mxGeometry relative="1" as="geometry">
            <mxPoint x="70" y="1004" as="sourcePoint" />
            <Array as="points">
              <mxPoint x="210" y="1020" />
              <mxPoint x="210" y="1070" />
            </Array>
            <mxPoint x="80" y="1024" as="targetPoint" />
          </mxGeometry>
        </mxCell>
        <mxCell id="FGPLI17WFUnC6xqe849k-206" value="onWriteRead" style="text;html=1;resizable=0;points=[];align=center;verticalAlign=middle;labelBackgroundColor=#ffffff;" vertex="1" connectable="0" parent="FGPLI17WFUnC6xqe849k-205">
          <mxGeometry x="-0.6833" y="1" relative="1" as="geometry">
            <mxPoint x="19" y="1" as="offset" />
          </mxGeometry>
        </mxCell>
        <mxCell id="FGPLI17WFUnC6xqe849k-207" value="" style="html=1;points=[];perimeter=orthogonalPerimeter;" vertex="1" parent="1">
          <mxGeometry x="388" y="730" width="10" height="470" as="geometry" />
        </mxCell>
        <mxCell id="FGPLI17WFUnC6xqe849k-208" value="TransportSocket" style="html=1;" vertex="1" parent="1">
          <mxGeometry x="328" y="630" width="130" height="20" as="geometry" />
        </mxCell>
        <mxCell id="FGPLI17WFUnC6xqe849k-209" style="edgeStyle=orthogonalEdgeStyle;rounded=0;orthogonalLoop=1;jettySize=auto;html=1;exitX=0.5;exitY=0;exitDx=0;exitDy=0;entryX=0.5;entryY=1;entryDx=0;entryDy=0;" edge="1" parent="1" source="FGPLI17WFUnC6xqe849k-210" target="FGPLI17WFUnC6xqe849k-208">
          <mxGeometry relative="1" as="geometry" />
        </mxCell>
        <mxCell id="FGPLI17WFUnC6xqe849k-210" value="SslSocket" style="html=1;" vertex="1" parent="1">
          <mxGeometry x="328" y="670" width="130" height="20" as="geometry" />
        </mxCell>
        <mxCell id="FGPLI17WFUnC6xqe849k-211" value="" style="endArrow=classic;html=1;" edge="1" parent="1" source="FGPLI17WFUnC6xqe849k-196" target="FGPLI17WFUnC6xqe849k-207">
          <mxGeometry width="50" height="50" relative="1" as="geometry">
            <mxPoint x="10" y="1270" as="sourcePoint" />
            <mxPoint x="60" y="1220" as="targetPoint" />
            <Array as="points">
              <mxPoint x="290" y="890" />
            </Array>
          </mxGeometry>
        </mxCell>
        <mxCell id="FGPLI17WFUnC6xqe849k-212" value="" style="edgeStyle=orthogonalEdgeStyle;html=1;align=left;spacingLeft=2;endArrow=block;rounded=0;" edge="1" parent="1" target="FGPLI17WFUnC6xqe849k-207">
          <mxGeometry relative="1" as="geometry">
            <mxPoint x="398" y="891" as="sourcePoint" />
            <Array as="points">
              <mxPoint x="528" y="891" />
              <mxPoint x="528" y="920" />
            </Array>
            <mxPoint x="398" y="911" as="targetPoint" />
          </mxGeometry>
        </mxCell>
        <mxCell id="FGPLI17WFUnC6xqe849k-213" value="doRead" style="text;html=1;resizable=0;points=[];align=center;verticalAlign=middle;labelBackgroundColor=#ffffff;" vertex="1" connectable="0" parent="FGPLI17WFUnC6xqe849k-212">
          <mxGeometry x="-0.3833" y="2" relative="1" as="geometry">
            <mxPoint x="-24" y="2" as="offset" />
          </mxGeometry>
        </mxCell>
        <mxCell id="FGPLI17WFUnC6xqe849k-214" value="" style="edgeStyle=orthogonalEdgeStyle;html=1;align=left;spacingLeft=2;endArrow=block;rounded=0;" edge="1" parent="1" source="FGPLI17WFUnC6xqe849k-207" target="FGPLI17WFUnC6xqe849k-207">
          <mxGeometry relative="1" as="geometry">
            <mxPoint x="398" y="1000" as="sourcePoint" />
            <Array as="points">
              <mxPoint x="528" y="1030" />
              <mxPoint x="528" y="1060" />
            </Array>
            <mxPoint x="398" y="1040" as="targetPoint" />
          </mxGeometry>
        </mxCell>
        <mxCell id="FGPLI17WFUnC6xqe849k-215" value="doWrite" style="text;html=1;resizable=0;points=[];align=center;verticalAlign=middle;labelBackgroundColor=#ffffff;" vertex="1" connectable="0" parent="FGPLI17WFUnC6xqe849k-214">
          <mxGeometry x="-0.3833" y="2" relative="1" as="geometry">
            <mxPoint x="-24" y="2" as="offset" />
          </mxGeometry>
        </mxCell>
        <mxCell id="FGPLI17WFUnC6xqe849k-216" value="" style="endArrow=classic;html=1;" edge="1" parent="1" source="FGPLI17WFUnC6xqe849k-196" target="FGPLI17WFUnC6xqe849k-207">
          <mxGeometry width="50" height="50" relative="1" as="geometry">
            <mxPoint x="80" y="1009.96" as="sourcePoint" />
            <mxPoint x="402.5" y="1009.96" as="targetPoint" />
            <Array as="points">
              <mxPoint x="360" y="1030" />
            </Array>
          </mxGeometry>
        </mxCell>
        <mxCell id="FGPLI17WFUnC6xqe849k-217" value="doHandshake()" style="text;html=1;resizable=0;points=[];autosize=1;align=left;verticalAlign=top;spacingTop=-4;" vertex="1" parent="1">
          <mxGeometry x="407" y="897" width="100" height="20" as="geometry" />
        </mxCell>
        <mxCell id="FGPLI17WFUnC6xqe849k-218" value="doHandshake()" style="text;html=1;" vertex="1" parent="1">
          <mxGeometry x="408" y="1032" width="100" height="30" as="geometry" />
        </mxCell>
        <mxCell id="FGPLI17WFUnC6xqe849k-219" value="" style="edgeStyle=orthogonalEdgeStyle;html=1;align=left;spacingLeft=2;endArrow=block;rounded=0;" edge="1" parent="1" target="FGPLI17WFUnC6xqe849k-196">
          <mxGeometry relative="1" as="geometry">
            <mxPoint x="80" y="918.4705882352941" as="sourcePoint" />
            <Array as="points">
              <mxPoint x="80" y="920" />
              <mxPoint x="200" y="920" />
              <mxPoint x="200" y="980" />
            </Array>
            <mxPoint x="80" y="947.8823529411766" as="targetPoint" />
          </mxGeometry>
        </mxCell>
        <mxCell id="FGPLI17WFUnC6xqe849k-220" value="onRead" style="text;html=1;resizable=0;points=[];align=center;verticalAlign=middle;labelBackgroundColor=#ffffff;" vertex="1" connectable="0" parent="FGPLI17WFUnC6xqe849k-219">
          <mxGeometry x="-0.3833" y="2" relative="1" as="geometry">
            <mxPoint x="-24" y="2" as="offset" />
          </mxGeometry>
        </mxCell>
        <mxCell id="FGPLI17WFUnC6xqe849k-221" value="FilterManagerImpl" style="html=1;" vertex="1" parent="1">
          <mxGeometry x="521" y="670" width="130" height="20" as="geometry" />
        </mxCell>
        <mxCell id="FGPLI17WFUnC6xqe849k-222" value="" style="html=1;points=[];perimeter=orthogonalPerimeter;" vertex="1" parent="1">
          <mxGeometry x="581" y="730" width="10" height="470" as="geometry" />
        </mxCell>
        <mxCell id="FGPLI17WFUnC6xqe849k-223" value="" style="edgeStyle=orthogonalEdgeStyle;html=1;align=left;spacingLeft=2;endArrow=block;rounded=0;" edge="1" parent="1" source="FGPLI17WFUnC6xqe849k-222" target="FGPLI17WFUnC6xqe849k-222">
          <mxGeometry relative="1" as="geometry">
            <mxPoint x="591.5" y="927.4705882352941" as="sourcePoint" />
            <Array as="points">
              <mxPoint x="722" y="930" />
              <mxPoint x="722" y="980" />
            </Array>
            <mxPoint x="591.5" y="956.8823529411766" as="targetPoint" />
          </mxGeometry>
        </mxCell>
        <mxCell id="FGPLI17WFUnC6xqe849k-224" value="onRead" style="text;html=1;resizable=0;points=[];align=center;verticalAlign=middle;labelBackgroundColor=#ffffff;" vertex="1" connectable="0" parent="FGPLI17WFUnC6xqe849k-223">
          <mxGeometry x="-0.3833" y="2" relative="1" as="geometry">
            <mxPoint x="-24" y="2" as="offset" />
          </mxGeometry>
        </mxCell>
        <mxCell id="FGPLI17WFUnC6xqe849k-225" value="" style="endArrow=classic;html=1;" edge="1" parent="1" source="FGPLI17WFUnC6xqe849k-196" target="FGPLI17WFUnC6xqe849k-222">
          <mxGeometry width="50" height="50" relative="1" as="geometry">
            <mxPoint x="80" y="933.1999999999998" as="sourcePoint" />
            <mxPoint x="690" y="930" as="targetPoint" />
            <Array as="points">
              <mxPoint x="120" y="930" />
            </Array>
          </mxGeometry>
        </mxCell>
        <mxCell id="FGPLI17WFUnC6xqe849k-226" value="ReadFilter" style="html=1;" vertex="1" parent="1">
          <mxGeometry x="712" y="670" width="130" height="20" as="geometry" />
        </mxCell>
        <mxCell id="FGPLI17WFUnC6xqe849k-227" value="" style="html=1;points=[];perimeter=orthogonalPerimeter;" vertex="1" parent="1">
          <mxGeometry x="772" y="730" width="10" height="470" as="geometry" />
        </mxCell>
        <mxCell id="FGPLI17WFUnC6xqe849k-228" value="" style="edgeStyle=orthogonalEdgeStyle;html=1;align=left;spacingLeft=2;endArrow=block;rounded=0;" edge="1" parent="1" source="FGPLI17WFUnC6xqe849k-227" target="FGPLI17WFUnC6xqe849k-227">
          <mxGeometry relative="1" as="geometry">
            <mxPoint x="797" y="929.3823529411766" as="sourcePoint" />
            <Array as="points">
              <mxPoint x="840" y="950" />
              <mxPoint x="840" y="970" />
            </Array>
            <mxPoint x="797" y="979.9705882352941" as="targetPoint" />
          </mxGeometry>
        </mxCell>
        <mxCell id="FGPLI17WFUnC6xqe849k-229" value="onData" style="text;html=1;resizable=0;points=[];align=center;verticalAlign=middle;labelBackgroundColor=#ffffff;" vertex="1" connectable="0" parent="FGPLI17WFUnC6xqe849k-228">
          <mxGeometry x="-0.3833" y="2" relative="1" as="geometry">
            <mxPoint x="-14" y="2" as="offset" />
          </mxGeometry>
        </mxCell>
        <mxCell id="FGPLI17WFUnC6xqe849k-230" value="" style="endArrow=classic;html=1;" edge="1" parent="1" source="FGPLI17WFUnC6xqe849k-222" target="FGPLI17WFUnC6xqe849k-227">
          <mxGeometry width="50" height="50" relative="1" as="geometry">
            <mxPoint x="114" y="1270" as="sourcePoint" />
            <mxPoint x="164" y="1220" as="targetPoint" />
            <Array as="points">
              <mxPoint x="740" y="950" />
            </Array>
          </mxGeometry>
        </mxCell>
        <mxCell id="FGPLI17WFUnC6xqe849k-231" value="go throught filters" style="text;html=1;resizable=0;points=[];align=center;verticalAlign=middle;labelBackgroundColor=#ffffff;" vertex="1" connectable="0" parent="FGPLI17WFUnC6xqe849k-230">
          <mxGeometry x="0.6838" y="132" relative="1" as="geometry">
            <mxPoint x="-83" y="142" as="offset" />
          </mxGeometry>
        </mxCell>
        <mxCell id="FGPLI17WFUnC6xqe849k-232" value="" style="shape=link;html=1;" edge="1" parent="1">
          <mxGeometry width="50" height="50" relative="1" as="geometry">
            <mxPoint y="1230" as="sourcePoint" />
            <mxPoint x="840" y="1230" as="targetPoint" />
          </mxGeometry>
        </mxCell>
        <mxCell id="FGPLI17WFUnC6xqe849k-233" value="ReadFilter" style="html=1;" vertex="1" parent="1">
          <mxGeometry x="40" y="1270" width="130" height="20" as="geometry" />
        </mxCell>
        <mxCell id="FGPLI17WFUnC6xqe849k-234" value="" style="html=1;points=[];perimeter=orthogonalPerimeter;" vertex="1" parent="1">
          <mxGeometry x="45" y="1360" width="10" height="470" as="geometry" />
        </mxCell>
        <mxCell id="FGPLI17WFUnC6xqe849k-235" value="" style="edgeStyle=orthogonalEdgeStyle;html=1;align=left;spacingLeft=2;endArrow=block;rounded=0;" edge="1" parent="1" source="FGPLI17WFUnC6xqe849k-234" target="FGPLI17WFUnC6xqe849k-234">
          <mxGeometry relative="1" as="geometry">
            <mxPoint x="80" y="1370" as="sourcePoint" />
            <Array as="points">
              <mxPoint x="240" y="1380" />
              <mxPoint x="240" y="1700" />
            </Array>
            <mxPoint x="80" y="1432" as="targetPoint" />
          </mxGeometry>
        </mxCell>
        <mxCell id="FGPLI17WFUnC6xqe849k-236" value="onData" style="text;html=1;resizable=0;points=[];align=center;verticalAlign=middle;labelBackgroundColor=#ffffff;" vertex="1" connectable="0" parent="FGPLI17WFUnC6xqe849k-235">
          <mxGeometry x="-0.3833" y="2" relative="1" as="geometry">
            <mxPoint x="-102" y="-32" as="offset" />
          </mxGeometry>
        </mxCell>
        <mxCell id="FGPLI17WFUnC6xqe849k-237" style="edgeStyle=orthogonalEdgeStyle;rounded=0;orthogonalLoop=1;jettySize=auto;html=1;exitX=0.5;exitY=0;exitDx=0;exitDy=0;entryX=0.5;entryY=1;entryDx=0;entryDy=0;" edge="1" parent="1" source="FGPLI17WFUnC6xqe849k-238" target="FGPLI17WFUnC6xqe849k-233">
          <mxGeometry relative="1" as="geometry" />
        </mxCell>
        <mxCell id="FGPLI17WFUnC6xqe849k-238" value="HTTP ConnectionManagerImpl&lt;span style=&quot;color: rgba(0 , 0 , 0 , 0) ; font-family: monospace ; font-size: 0px&quot;&gt;%3CmxGraphModel%3E%3Croot%3E%3CmxCell%20id%3D%220%22%2F%3E%3CmxCell%20id%3D%221%22%20parent%3D%220%22%2F%3E%3CmxCell%20id%3D%222%22%20value%3D%22ReadFilter%22%20style%3D%22html%3D1%3B%22%20vertex%3D%221%22%20parent%3D%221%22%3E%3CmxGeometry%20x%3D%2210%22%20y%3D%221270%22%20width%3D%22130%22%20height%3D%2220%22%20as%3D%22geometry%22%2F%3E%3C%2FmxCell%3E%3C%2Froot%3E%3C%2FmxGraphModel%3E Cp&lt;/span&gt;" style="html=1;" vertex="1" parent="1">
          <mxGeometry x="11" y="1320" width="190" height="20" as="geometry" />
        </mxCell>
        <mxCell id="FGPLI17WFUnC6xqe849k-239" value="HTTP codec ConnectionImpl&lt;span style=&quot;color: rgba(0 , 0 , 0 , 0) ; font-family: monospace ; font-size: 0px&quot;&gt;%3CmxGraphModel%3E%3Croot%3E%3CmxCell%20id%3D%220%22%2F%3E%3CmxCell%20id%3D%221%22%20parent%3D%220%22%2F%3E%3CmxCell%20id%3D%222%22%20value%3D%22ReadFilter%22%20style%3D%22html%3D1%3B%22%20vertex%3D%221%22%20parent%3D%221%22%3E%3CmxGeometry%20x%3D%2210%22%20y%3D%221270%22%20width%3D%22130%22%20height%3D%2220%22%20as%3D%22geometry%22%2F%3E%3C%2FmxCell%3E%3C%2Froot%3E%3C%2FmxGraphel%3E Cp&lt;/span&gt;" style="html=1;" vertex="1" parent="1">
          <mxGeometry x="233" y="1270" width="190" height="20" as="geometry" />
        </mxCell>
        <mxCell id="FGPLI17WFUnC6xqe849k-240" value="" style="html=1;points=[];perimeter=orthogonalPerimeter;" vertex="1" parent="1">
          <mxGeometry x="270" y="1360" width="10" height="470" as="geometry" />
        </mxCell>
        <mxCell id="FGPLI17WFUnC6xqe849k-241" value="" style="edgeStyle=orthogonalEdgeStyle;html=1;align=left;spacingLeft=2;endArrow=block;rounded=0;" edge="1" parent="1" source="FGPLI17WFUnC6xqe849k-240" target="FGPLI17WFUnC6xqe849k-240">
          <mxGeometry relative="1" as="geometry">
            <mxPoint x="320" y="1422" as="sourcePoint" />
            <Array as="points">
              <mxPoint x="460" y="1380" />
              <mxPoint x="460" y="1670" />
            </Array>
            <mxPoint x="348" y="1482" as="targetPoint" />
          </mxGeometry>
        </mxCell>
        <mxCell id="FGPLI17WFUnC6xqe849k-242" value="&lt;span style=&quot;text-align: left ; background-color: rgb(248 , 249 , 250)&quot;&gt;dispatch&lt;/span&gt;" style="text;html=1;resizable=0;points=[];align=center;verticalAlign=middle;labelBackgroundColor=#ffffff;" vertex="1" connectable="0" parent="FGPLI17WFUnC6xqe849k-241">
          <mxGeometry x="-0.7294" relative="1" as="geometry">
            <mxPoint as="offset" />
          </mxGeometry>
        </mxCell>
        <mxCell id="FGPLI17WFUnC6xqe849k-243" value="" style="edgeStyle=orthogonalEdgeStyle;html=1;align=left;spacingLeft=2;endArrow=block;rounded=0;" edge="1" parent="1" source="FGPLI17WFUnC6xqe849k-240" target="FGPLI17WFUnC6xqe849k-240">
          <mxGeometry relative="1" as="geometry">
            <mxPoint x="338" y="1390" as="sourcePoint" />
            <Array as="points">
              <mxPoint x="450" y="1400" />
              <mxPoint x="450" y="1650" />
            </Array>
            <mxPoint x="338" y="1480" as="targetPoint" />
          </mxGeometry>
        </mxCell>
        <mxCell id="FGPLI17WFUnC6xqe849k-244" value="&lt;span style=&quot;text-align: left ; background-color: rgb(248 , 249 , 250)&quot;&gt;dispatchSlice&lt;br&gt;&lt;/span&gt;" style="text;html=1;resizable=0;points=[];align=center;verticalAlign=middle;labelBackgroundColor=#ffffff;" vertex="1" connectable="0" parent="FGPLI17WFUnC6xqe849k-243">
          <mxGeometry x="-0.7294" relative="1" as="geometry">
            <mxPoint x="18" as="offset" />
          </mxGeometry>
        </mxCell>
        <mxCell id="FGPLI17WFUnC6xqe849k-245" value="" style="edgeStyle=orthogonalEdgeStyle;html=1;align=left;spacingLeft=2;endArrow=block;rounded=0;" edge="1" parent="1" source="FGPLI17WFUnC6xqe849k-240" target="FGPLI17WFUnC6xqe849k-240">
          <mxGeometry relative="1" as="geometry">
            <mxPoint x="328" y="1520" as="sourcePoint" />
            <Array as="points">
              <mxPoint x="440" y="1420" />
              <mxPoint x="440" y="1630" />
            </Array>
            <mxPoint x="328" y="1570" as="targetPoint" />
          </mxGeometry>
        </mxCell>
        <mxCell id="FGPLI17WFUnC6xqe849k-246" value="&lt;span style=&quot;text-align: left ; background-color: rgb(248 , 249 , 250)&quot;&gt;onMessageComplete&lt;br&gt;&lt;/span&gt;" style="text;html=1;resizable=0;points=[];align=center;verticalAlign=middle;labelBackgroundColor=#ffffff;" vertex="1" connectable="0" parent="FGPLI17WFUnC6xqe849k-245">
          <mxGeometry x="-0.7294" relative="1" as="geometry">
            <mxPoint x="17" as="offset" />
          </mxGeometry>
        </mxCell>
        <mxCell id="FGPLI17WFUnC6xqe849k-247" value="" style="edgeStyle=orthogonalEdgeStyle;html=1;align=left;spacingLeft=2;endArrow=block;rounded=0;" edge="1" parent="1" source="FGPLI17WFUnC6xqe849k-240" target="FGPLI17WFUnC6xqe849k-240">
          <mxGeometry relative="1" as="geometry">
            <mxPoint x="338" y="1530" as="sourcePoint" />
            <Array as="points">
              <mxPoint x="430" y="1450" />
              <mxPoint x="430" y="1610" />
            </Array>
            <mxPoint x="338" y="1605" as="targetPoint" />
          </mxGeometry>
        </mxCell>
        <mxCell id="FGPLI17WFUnC6xqe849k-248" value="&lt;span style=&quot;text-align: left ; background-color: rgb(248 , 249 , 250)&quot;&gt;onMessageCompleteBase&lt;br&gt;&lt;/span&gt;" style="text;html=1;resizable=0;points=[];align=center;verticalAlign=middle;labelBackgroundColor=#ffffff;" vertex="1" connectable="0" parent="FGPLI17WFUnC6xqe849k-247">
          <mxGeometry x="-0.7294" relative="1" as="geometry">
            <mxPoint x="13" as="offset" />
          </mxGeometry>
        </mxCell>
        <mxCell id="FGPLI17WFUnC6xqe849k-249" style="edgeStyle=orthogonalEdgeStyle;rounded=0;orthogonalLoop=1;jettySize=auto;html=1;exitX=0.5;exitY=0;exitDx=0;exitDy=0;entryX=0.458;entryY=1.1;entryDx=0;entryDy=0;entryPerimeter=0;" edge="1" parent="1" source="FGPLI17WFUnC6xqe849k-250" target="FGPLI17WFUnC6xqe849k-239">
          <mxGeometry relative="1" as="geometry" />
        </mxCell>
        <mxCell id="FGPLI17WFUnC6xqe849k-250" value="HTTP codec ServerConnectionImpl&lt;span style=&quot;color: rgba(0 , 0 , 0 , 0) ; font-family: monospace ; font-size: 0px&quot;&gt;%3CmxGraphModel%3E%3Croot%3E%3CmxCell%20id%3D%220%22%2F%3E%3CmxCell%20id%3D%221%22%20parent%3D%220%22%2F%3E%3CmxCell%20id%3D%222%22%20value%3D%22ReadFilter%22%20style%3D%22html%3D1%3B%22%20vertex%3D%221%22%20parent%3D%221%22%3E%3CmxGeometry%20x%3D%2210%22%20y%3D%221270%22%20width%3D%22130%22%20height%3D%2220%22%20as%3D%22geometry%22%2F%3E%3C%2FmxCell%3E%3C%2Froot%3E%3C%2FmxGraphModel%&lt;/span&gt;" style="html=1;" vertex="1" parent="1">
          <mxGeometry x="221.5" y="1320" width="197" height="20" as="geometry" />
        </mxCell>
        <mxCell id="FGPLI17WFUnC6xqe849k-251" value="" style="endArrow=classic;html=1;" edge="1" parent="1" source="FGPLI17WFUnC6xqe849k-240" target="FGPLI17WFUnC6xqe849k-234">
          <mxGeometry width="50" height="50" relative="1" as="geometry">
            <mxPoint x="10" y="2310" as="sourcePoint" />
            <mxPoint x="150" y="1740" as="targetPoint" />
            <Array as="points">
              <mxPoint x="180" y="1480" />
            </Array>
          </mxGeometry>
        </mxCell>
        <mxCell id="FGPLI17WFUnC6xqe849k-252" value="" style="edgeStyle=orthogonalEdgeStyle;html=1;align=left;spacingLeft=2;endArrow=block;rounded=0;" edge="1" parent="1" source="FGPLI17WFUnC6xqe849k-234" target="FGPLI17WFUnC6xqe849k-234">
          <mxGeometry relative="1" as="geometry">
            <mxPoint x="81" y="1490" as="sourcePoint" />
            <Array as="points">
              <mxPoint x="230" y="1500" />
              <mxPoint x="230" y="1600" />
            </Array>
            <mxPoint x="81" y="1560" as="targetPoint" />
          </mxGeometry>
        </mxCell>
        <mxCell id="FGPLI17WFUnC6xqe849k-253" value="ActiveStream::decodeHeaders" style="text;html=1;resizable=0;points=[];align=center;verticalAlign=middle;labelBackgroundColor=#ffffff;" vertex="1" connectable="0" parent="FGPLI17WFUnC6xqe849k-252">
          <mxGeometry x="-0.6471" y="-2" relative="1" as="geometry">
            <mxPoint x="6" y="-2" as="offset" />
          </mxGeometry>
        </mxCell>
        <mxCell id="FGPLI17WFUnC6xqe849k-254" value="HTTP FilterManager&lt;span style=&quot;color: rgba(0 , 0 , 0 , 0) ; font-family: monospace ; font-size: 0px&quot;&gt;phModel%3E%3Croot%3E%3CmxCell%20id%3D%220%22%2F%3E%3CmxCell%20id%3D%221%22%20parent%3D%220%22%2F%3E%3CmxCell%20id%3D%222%22%20value%3D%22ReadFilter%22%20style%3D%22html%3D1%3B%22%20vertex%3D%221%22%20parent%3D%221%22%3E%3CmxGeometry%20x%3D%2210%22%20y%3D%221270%22%20width%3D%22130%22%20height%3D%2220%22%20as%3D%22geometry%22%2F%3E%3C%2FmxCell%3E%3C%2Froot%3E%3C%2FmxGaphMo&lt;/span&gt;" style="html=1;" vertex="1" parent="1">
          <mxGeometry x="450" y="1320" width="197" height="20" as="geometry" />
        </mxCell>
        <mxCell id="FGPLI17WFUnC6xqe849k-255" value="" style="html=1;points=[];perimeter=orthogonalPerimeter;" vertex="1" parent="1">
          <mxGeometry x="516" y="1360" width="10" height="470" as="geometry" />
        </mxCell>
        <mxCell id="FGPLI17WFUnC6xqe849k-256" value="" style="endArrow=classic;html=1;" edge="1" parent="1" source="FGPLI17WFUnC6xqe849k-234" target="FGPLI17WFUnC6xqe849k-255">
          <mxGeometry width="50" height="50" relative="1" as="geometry">
            <mxPoint x="10" y="2310" as="sourcePoint" />
            <mxPoint x="60" y="2260" as="targetPoint" />
            <Array as="points">
              <mxPoint x="340" y="1520" />
            </Array>
          </mxGeometry>
        </mxCell>
        <mxCell id="FGPLI17WFUnC6xqe849k-257" value="" style="edgeStyle=orthogonalEdgeStyle;html=1;align=left;spacingLeft=2;endArrow=block;rounded=0;" edge="1" parent="1" source="FGPLI17WFUnC6xqe849k-255" target="FGPLI17WFUnC6xqe849k-255">
          <mxGeometry relative="1" as="geometry">
            <mxPoint x="610" y="1520" as="sourcePoint" />
            <Array as="points">
              <mxPoint x="630" y="1520" />
              <mxPoint x="630" y="1595" />
            </Array>
            <mxPoint x="610" y="1615" as="targetPoint" />
          </mxGeometry>
        </mxCell>
        <mxCell id="FGPLI17WFUnC6xqe849k-258" value="decodeHeaders" style="text;html=1;resizable=0;points=[];align=center;verticalAlign=middle;labelBackgroundColor=#ffffff;" vertex="1" connectable="0" parent="FGPLI17WFUnC6xqe849k-257">
          <mxGeometry x="-0.6471" y="-2" relative="1" as="geometry">
            <mxPoint x="2" y="-2" as="offset" />
          </mxGeometry>
        </mxCell>
        <mxCell id="FGPLI17WFUnC6xqe849k-259" style="edgeStyle=orthogonalEdgeStyle;rounded=0;orthogonalLoop=1;jettySize=auto;html=1;exitX=0.5;exitY=0;exitDx=0;exitDy=0;entryX=0.556;entryY=1.075;entryDx=0;entryDy=0;entryPerimeter=0;" edge="1" parent="1" source="FGPLI17WFUnC6xqe849k-260" target="FGPLI17WFUnC6xqe849k-261">
          <mxGeometry relative="1" as="geometry" />
        </mxCell>
        <mxCell id="FGPLI17WFUnC6xqe849k-260" value="Service Routing Filter" style="html=1;" vertex="1" parent="1">
          <mxGeometry x="683.5" y="1320" width="147" height="20" as="geometry" />
        </mxCell>
        <mxCell id="FGPLI17WFUnC6xqe849k-261" value="HTTP::StreamDecoderFilter" style="html=1;" vertex="1" parent="1">
          <mxGeometry x="660" y="1270" width="170" height="20" as="geometry" />
        </mxCell>
        <mxCell id="FGPLI17WFUnC6xqe849k-262" value="" style="html=1;points=[];perimeter=orthogonalPerimeter;" vertex="1" parent="1">
          <mxGeometry x="722" y="1360" width="10" height="470" as="geometry" />
        </mxCell>
        <mxCell id="FGPLI17WFUnC6xqe849k-263" value="" style="edgeStyle=orthogonalEdgeStyle;html=1;align=left;spacingLeft=2;endArrow=block;rounded=0;" edge="1" parent="1" source="FGPLI17WFUnC6xqe849k-262" target="FGPLI17WFUnC6xqe849k-262">
          <mxGeometry relative="1" as="geometry">
            <mxPoint x="732" y="1520" as="sourcePoint" />
            <Array as="points">
              <mxPoint x="840" y="1540" />
              <mxPoint x="840" y="1590" />
            </Array>
            <mxPoint x="732" y="1580" as="targetPoint" />
          </mxGeometry>
        </mxCell>
        <mxCell id="FGPLI17WFUnC6xqe849k-264" value="decodeHeaders" style="text;html=1;resizable=0;points=[];align=center;verticalAlign=middle;labelBackgroundColor=#ffffff;" vertex="1" connectable="0" parent="FGPLI17WFUnC6xqe849k-263">
          <mxGeometry x="-0.6471" y="-2" relative="1" as="geometry">
            <mxPoint x="5" y="-2" as="offset" />
          </mxGeometry>
        </mxCell>
        <mxCell id="FGPLI17WFUnC6xqe849k-265" value="" style="endArrow=classic;html=1;" edge="1" parent="1" source="FGPLI17WFUnC6xqe849k-255" target="FGPLI17WFUnC6xqe849k-262">
          <mxGeometry width="50" height="50" relative="1" as="geometry">
            <mxPoint x="10" y="2310" as="sourcePoint" />
            <mxPoint x="60" y="2260" as="targetPoint" />
            <Array as="points">
              <mxPoint x="630" y="1540" />
            </Array>
          </mxGeometry>
        </mxCell>
        <mxCell id="FGPLI17WFUnC6xqe849k-266" value="&lt;div style=&quot;font-family: &amp;#34;droid sans mono&amp;#34; , monospace , monospace , &amp;#34;droid sans fallback&amp;#34; ; line-height: 19px ; white-space: pre ; font-size: 8px&quot;&gt;&lt;span style=&quot;background-color: rgb(255 , 255 , 255)&quot;&gt;upstream_requests_.front()-&amp;gt;&lt;/span&gt;&lt;/div&gt;&lt;div style=&quot;font-family: &amp;#34;droid sans mono&amp;#34; , monospace , monospace , &amp;#34;droid sans fallback&amp;#34; ; line-height: 19px ; white-space: pre ; font-size: 8px&quot;&gt;&lt;span style=&quot;background-color: rgb(255 , 255 , 255)&quot;&gt;encodeHeaders(end_stream);&lt;/span&gt;&lt;/div&gt;" style="text;html=1;resizable=0;points=[];autosize=1;align=left;verticalAlign=top;spacingTop=-4;" vertex="1" parent="1">
          <mxGeometry x="697" y="1546" width="150" height="40" as="geometry" />
        </mxCell>
        <mxCell id="FGPLI17WFUnC6xqe849k-267" value="" style="shape=link;html=1;" edge="1" parent="1">
          <mxGeometry width="50" height="50" relative="1" as="geometry">
            <mxPoint y="1870" as="sourcePoint" />
            <mxPoint x="840" y="1870" as="targetPoint" />
          </mxGeometry>
        </mxCell>
        <mxCell id="FGPLI17WFUnC6xqe849k-268" value="UpstreamRequest" style="html=1;" vertex="1" parent="1">
          <mxGeometry x="20" y="1940" width="190" height="20" as="geometry" />
        </mxCell>
        <mxCell id="FGPLI17WFUnC6xqe849k-269" value="" style="html=1;points=[];perimeter=orthogonalPerimeter;" vertex="1" parent="1">
          <mxGeometry x="101" y="1990" width="10" height="470" as="geometry" />
        </mxCell>
        <mxCell id="FGPLI17WFUnC6xqe849k-270" value="ConnPoolImplBase" style="html=1;" vertex="1" parent="1">
          <mxGeometry x="256" y="1940" width="190" height="20" as="geometry" />
        </mxCell>
        <mxCell id="FGPLI17WFUnC6xqe849k-271" value="" style="html=1;points=[];perimeter=orthogonalPerimeter;" vertex="1" parent="1">
          <mxGeometry x="281" y="1990" width="10" height="470" as="geometry" />
        </mxCell>
        <mxCell id="FGPLI17WFUnC6xqe849k-272" value="" style="edgeStyle=orthogonalEdgeStyle;html=1;align=left;spacingLeft=2;endArrow=block;rounded=0;" edge="1" parent="1" target="FGPLI17WFUnC6xqe849k-269">
          <mxGeometry relative="1" as="geometry">
            <mxPoint x="111" y="2040" as="sourcePoint" />
            <Array as="points">
              <mxPoint x="215" y="2040" />
              <mxPoint x="215" y="2330" />
            </Array>
            <mxPoint x="111" y="2115" as="targetPoint" />
          </mxGeometry>
        </mxCell>
        <mxCell id="FGPLI17WFUnC6xqe849k-273" value="encodeHeaders" style="text;html=1;resizable=0;points=[];align=center;verticalAlign=middle;labelBackgroundColor=#ffffff;" vertex="1" connectable="0" parent="FGPLI17WFUnC6xqe849k-272">
          <mxGeometry x="-0.523" y="2" relative="1" as="geometry">
            <mxPoint x="-57" y="-15" as="offset" />
          </mxGeometry>
        </mxCell>
        <mxCell id="FGPLI17WFUnC6xqe849k-274" value="" style="edgeStyle=orthogonalEdgeStyle;html=1;align=left;spacingLeft=2;endArrow=block;rounded=0;" edge="1" parent="1" source="FGPLI17WFUnC6xqe849k-271" target="FGPLI17WFUnC6xqe849k-271">
          <mxGeometry relative="1" as="geometry">
            <mxPoint x="333" y="2040" as="sourcePoint" />
            <Array as="points">
              <mxPoint x="470" y="2040" />
              <mxPoint x="470" y="2310" />
            </Array>
            <mxPoint x="333" y="2115" as="targetPoint" />
          </mxGeometry>
        </mxCell>
        <mxCell id="FGPLI17WFUnC6xqe849k-275" value="newStream" style="text;html=1;resizable=0;points=[];align=center;verticalAlign=middle;labelBackgroundColor=#ffffff;" vertex="1" connectable="0" parent="FGPLI17WFUnC6xqe849k-274">
          <mxGeometry x="-0.523" y="2" relative="1" as="geometry">
            <mxPoint x="-18" y="2" as="offset" />
          </mxGeometry>
        </mxCell>
        <mxCell id="FGPLI17WFUnC6xqe849k-276" value="" style="edgeStyle=orthogonalEdgeStyle;html=1;align=left;spacingLeft=2;endArrow=block;rounded=0;" edge="1" parent="1" source="FGPLI17WFUnC6xqe849k-271" target="FGPLI17WFUnC6xqe849k-271">
          <mxGeometry relative="1" as="geometry">
            <mxPoint x="343" y="2050" as="sourcePoint" />
            <Array as="points">
              <mxPoint x="460" y="2060" />
              <mxPoint x="460" y="2300" />
            </Array>
            <mxPoint x="343" y="2125" as="targetPoint" />
          </mxGeometry>
        </mxCell>
        <mxCell id="FGPLI17WFUnC6xqe849k-277" value="&lt;span style=&quot;color: rgba(0 , 0 , 0 , 0) ; font-family: monospace ; font-size: 0px ; background-color: rgb(248 , 249 , 250)&quot;&gt;%3CmxGraphModel%3E%3Croot%3E%3CmxCell%20id%3D%220%22%2F%3E%3CmxCell%20id%3D%221%22%20parent%3D%220%22%2F%3E%3CmxCell%20id%3D%222%22%20value%3D%22%22%20style%3D%22edgeStyle%3DorthogonalEdgeStyle%3Bhtml%3D1%3Balign%3Dleft%3BspacingLeft%3D2%3BendArrow%3Dblock%3Brounded%3D0%3B%22%20edge%3D%221%22%20parent%3D%221%22%3E%3CmxGeometry%20relative%3D%221%22%20as%3D%22geometry%22%3E%3CmxPoint%20x%3D%22333%22%20y%3D%222040%22%20as%3D%22sourcePoint%22%2F%3E%3CArray%20as%3D%22points%22%3E%3CmxPoint%20x%3D%22437%22%20y%3D%222040%22%2F%3E%3CmxPoint%20x%3D%22437%22%20y%3D%222115%22%2F%3E%3C%2FArray%3E%3CmxPoint%20x%3D%22333%22%20y%3D%222115%22%20as%3D%22targetPoint%22%2F%3E%3C%2FmxGeometry%3E%3C%2FmxCell%3E%3CmxCell%20id%3D%223%22%20value%3D%22newStream%22%20style%3D%22text%3Bhtml%3D1%3Bresizable%3D0%3Bpoints%3D%5B%5D%3Balign%3Dcenter%3BverticalAlign%3Dmiddle%3BlabelBackgroundColor%3D%23ffffff%3B%22%20vertex%3D%221%22%20connectable%3D%220%22%20parent%3D%222%22%3E%3CmxGeometry%20x%3D%22-0.523%22%20y%3D%222%22%20relative%3D%221%22%20as%3D%22geometry%22%3E%3CmxPoint%20x%3D%22-18%22%20y%3D%222%22%20as%3D%22offset%22%2F%3E%3C%2FmxGeometry%3E%3C%2FmxCell%3E%3C%2Froot%3E%3C%2FmxGraphModel%3E&lt;/span&gt;" style="text;html=1;resizable=0;points=[];align=center;verticalAlign=middle;labelBackgroundColor=#ffffff;" vertex="1" connectable="0" parent="FGPLI17WFUnC6xqe849k-276">
          <mxGeometry x="-0.523" y="2" relative="1" as="geometry">
            <mxPoint x="-18" y="2" as="offset" />
          </mxGeometry>
        </mxCell>
        <mxCell id="FGPLI17WFUnC6xqe849k-278" value="tryCreateNewConnections" style="text;html=1;resizable=0;points=[];align=center;verticalAlign=middle;labelBackgroundColor=#ffffff;" vertex="1" connectable="0" parent="FGPLI17WFUnC6xqe849k-276">
          <mxGeometry x="-0.7336" y="-2" relative="1" as="geometry">
            <mxPoint x="3" y="-2" as="offset" />
          </mxGeometry>
        </mxCell>
        <mxCell id="FGPLI17WFUnC6xqe849k-279" value="" style="edgeStyle=orthogonalEdgeStyle;html=1;align=left;spacingLeft=2;endArrow=block;rounded=0;" edge="1" parent="1" source="FGPLI17WFUnC6xqe849k-271" target="FGPLI17WFUnC6xqe849k-271">
          <mxGeometry relative="1" as="geometry">
            <mxPoint x="301" y="2070" as="sourcePoint" />
            <Array as="points">
              <mxPoint x="450" y="2080" />
              <mxPoint x="450" y="2290" />
            </Array>
            <mxPoint x="301" y="2300" as="targetPoint" />
          </mxGeometry>
        </mxCell>
        <mxCell id="FGPLI17WFUnC6xqe849k-280" value="&lt;span style=&quot;color: rgba(0 , 0 , 0 , 0) ; font-family: monospace ; font-size: 0px ; background-color: rgb(248 , 249 , 250)&quot;&gt;%3CmxGraphModel%3E%3Croot%3E%3CmxCell%20id%3D%220%22%2F%3E%3CmxCell%20id%3D%221%22%20parent%3D%220%22%2F%3E%3CmxCell%20id%3D%222%22%20value%3D%22%22%20style%3D%22edgeStyle%3DorthogonalEdgeStyle%3Bhtml%3D1%3Balign%3Dleft%3BspacingLeft%3D2%3BendArrow%3Dblock%3Brounded%3D0%3B%22%20edge%3D%221%22%20parent%3D%221%22%3E%3CmxGeometry%20relative%3D%221%22%20as%3D%22geometry%22%3E%3CmxPoint%20x%3D%22333%22%20y%3D%222040%22%20as%3D%22sourcePoint%22%2F%3E%3CArray%20as%3D%22points%22%3E%3CmxPoint%20x%3D%22437%22%20y%3D%222040%22%2F%3E%3CmxPoint%20x%3D%22437%22%20y%3D%222115%22%2F%3E%3C%2FArray%3E%3CmxPoint%20x%3D%22333%22%20y%3D%222115%22%20as%3D%22targetPoint%22%2F%3E%3C%2FmxGeometry%3E%3C%2FmxCell%3E%3CmxCell%20id%3D%223%22%20value%3D%22newStream%22%20style%3D%22text%3Bhtml%3D1%3Bresizable%3D0%3Bpoints%3D%5B%5D%3Balign%3Dcenter%3BverticalAlign%3Dmiddle%3BlabelBackgroundColor%3D%23ffffff%3B%22%20vertex%3D%221%22%20connectable%3D%220%22%20parent%3D%222%22%3E%3CmxGeometry%20x%3D%22-0.523%22%20y%3D%222%22%20relative%3D%221%22%20as%3D%22geometry%22%3E%3CmxPoint%20x%3D%22-18%22%20y%3D%222%22%20as%3D%22offset%22%2F%3E%3C%2FmxGeometry%3E%3C%2FmxCell%3E%3C%2Froot%3E%3C%2FmxGraphModel%3E&lt;/span&gt;" style="text;html=1;resizable=0;points=[];align=center;verticalAlign=middle;labelBackgroundColor=#ffffff;" vertex="1" connectable="0" parent="FGPLI17WFUnC6xqe849k-279">
          <mxGeometry x="-0.523" y="2" relative="1" as="geometry">
            <mxPoint x="-18" y="2" as="offset" />
          </mxGeometry>
        </mxCell>
        <mxCell id="FGPLI17WFUnC6xqe849k-281" value="tryCreateNewConnection" style="text;html=1;resizable=0;points=[];align=center;verticalAlign=middle;labelBackgroundColor=#ffffff;" vertex="1" connectable="0" parent="FGPLI17WFUnC6xqe849k-279">
          <mxGeometry x="-0.7336" y="-2" relative="1" as="geometry">
            <mxPoint x="10" y="-2" as="offset" />
          </mxGeometry>
        </mxCell>
        <mxCell id="FGPLI17WFUnC6xqe849k-282" value="instantiateActiveClient" style="text;html=1;resizable=0;points=[];autosize=1;align=left;verticalAlign=top;spacingTop=-4;" vertex="1" parent="1">
          <mxGeometry x="304" y="2100" width="130" height="20" as="geometry" />
        </mxCell>
        <mxCell id="FGPLI17WFUnC6xqe849k-283" style="edgeStyle=orthogonalEdgeStyle;rounded=0;orthogonalLoop=1;jettySize=auto;html=1;exitX=0.5;exitY=0;exitDx=0;exitDy=0;entryX=0.5;entryY=1;entryDx=0;entryDy=0;" edge="1" parent="1" source="FGPLI17WFUnC6xqe849k-284" target="FGPLI17WFUnC6xqe849k-285">
          <mxGeometry relative="1" as="geometry" />
        </mxCell>
        <mxCell id="FGPLI17WFUnC6xqe849k-284" value="ActiveClient" style="html=1;" vertex="1" parent="1">
          <mxGeometry x="469" y="1940" width="122" height="20" as="geometry" />
        </mxCell>
        <mxCell id="FGPLI17WFUnC6xqe849k-285" value="Envoy::ConnectionPool::ActiveClient" style="html=1;" vertex="1" parent="1">
          <mxGeometry x="423" y="1900" width="219" height="20" as="geometry" />
        </mxCell>
        <mxCell id="FGPLI17WFUnC6xqe849k-286" value="" style="html=1;points=[];perimeter=orthogonalPerimeter;" vertex="1" parent="1">
          <mxGeometry x="538.5" y="1990" width="10" height="470" as="geometry" />
        </mxCell>
        <mxCell id="FGPLI17WFUnC6xqe849k-287" value="" style="endArrow=classic;html=1;entryX=-0.1;entryY=0.283;entryDx=0;entryDy=0;entryPerimeter=0;" edge="1" parent="1" source="FGPLI17WFUnC6xqe849k-271" target="FGPLI17WFUnC6xqe849k-286">
          <mxGeometry width="50" height="50" relative="1" as="geometry">
            <mxPoint x="340" y="2180" as="sourcePoint" />
            <mxPoint x="390" y="2130" as="targetPoint" />
          </mxGeometry>
        </mxCell>
        <mxCell id="FGPLI17WFUnC6xqe849k-288" value="" style="edgeStyle=orthogonalEdgeStyle;html=1;align=left;spacingLeft=2;endArrow=block;rounded=0;" edge="1" parent="1" source="FGPLI17WFUnC6xqe849k-286" target="FGPLI17WFUnC6xqe849k-286">
          <mxGeometry relative="1" as="geometry">
            <mxPoint x="577" y="2120" as="sourcePoint" />
            <Array as="points">
              <mxPoint x="660" y="2120" />
              <mxPoint x="660" y="2190" />
            </Array>
            <mxPoint x="577" y="2410" as="targetPoint" />
          </mxGeometry>
        </mxCell>
        <mxCell id="FGPLI17WFUnC6xqe849k-289" value="ActiveClient" style="text;html=1;resizable=0;points=[];align=center;verticalAlign=middle;labelBackgroundColor=#ffffff;" vertex="1" connectable="0" parent="FGPLI17WFUnC6xqe849k-288">
          <mxGeometry x="-0.523" y="2" relative="1" as="geometry">
            <mxPoint x="-6" y="2" as="offset" />
          </mxGeometry>
        </mxCell>
        <mxCell id="FGPLI17WFUnC6xqe849k-290" style="edgeStyle=orthogonalEdgeStyle;rounded=0;orthogonalLoop=1;jettySize=auto;html=1;exitX=0.75;exitY=0;exitDx=0;exitDy=0;entryX=0.5;entryY=1;entryDx=0;entryDy=0;" edge="1" parent="1" source="FGPLI17WFUnC6xqe849k-292" target="FGPLI17WFUnC6xqe849k-294">
          <mxGeometry relative="1" as="geometry" />
        </mxCell>
        <mxCell id="FGPLI17WFUnC6xqe849k-291" style="edgeStyle=orthogonalEdgeStyle;rounded=0;orthogonalLoop=1;jettySize=auto;html=1;exitX=0.25;exitY=0;exitDx=0;exitDy=0;entryX=0.75;entryY=1;entryDx=0;entryDy=0;" edge="1" parent="1" source="FGPLI17WFUnC6xqe849k-292" target="FGPLI17WFUnC6xqe849k-293">
          <mxGeometry relative="1" as="geometry" />
        </mxCell>
        <mxCell id="FGPLI17WFUnC6xqe849k-292" value="HostImpl" style="html=1;" vertex="1" parent="1">
          <mxGeometry x="700" y="1940" width="122" height="20" as="geometry" />
        </mxCell>
        <mxCell id="FGPLI17WFUnC6xqe849k-293" value="Host" style="html=1;" vertex="1" parent="1">
          <mxGeometry x="674.5" y="1900" width="50" height="20" as="geometry" />
        </mxCell>
        <mxCell id="FGPLI17WFUnC6xqe849k-294" value="HostDescriptionImpl" style="html=1;" vertex="1" parent="1">
          <mxGeometry x="732" y="1900" width="113" height="20" as="geometry" />
        </mxCell>
        <mxCell id="FGPLI17WFUnC6xqe849k-295" value="" style="html=1;points=[];perimeter=orthogonalPerimeter;" vertex="1" parent="1">
          <mxGeometry x="719.5" y="1990" width="10" height="470" as="geometry" />
        </mxCell>
        <mxCell id="FGPLI17WFUnC6xqe849k-296" value="" style="endArrow=classic;html=1;entryX=-0.15;entryY=0.309;entryDx=0;entryDy=0;entryPerimeter=0;" edge="1" parent="1" source="FGPLI17WFUnC6xqe849k-286" target="FGPLI17WFUnC6xqe849k-295">
          <mxGeometry width="50" height="50" relative="1" as="geometry">
            <mxPoint x="560" y="2180" as="sourcePoint" />
            <mxPoint x="721" y="2129" as="targetPoint" />
          </mxGeometry>
        </mxCell>
        <mxCell id="FGPLI17WFUnC6xqe849k-297" value="" style="edgeStyle=orthogonalEdgeStyle;html=1;align=left;spacingLeft=2;endArrow=block;rounded=0;" edge="1" parent="1">
          <mxGeometry relative="1" as="geometry">
            <mxPoint x="729.5" y="2135" as="sourcePoint" />
            <Array as="points">
              <mxPoint x="841" y="2135" />
              <mxPoint x="841" y="2175" />
            </Array>
            <mxPoint x="729.5" y="2175" as="targetPoint" />
          </mxGeometry>
        </mxCell>
        <mxCell id="FGPLI17WFUnC6xqe849k-298" value="createConnection" style="text;html=1;resizable=0;points=[];align=center;verticalAlign=middle;labelBackgroundColor=#ffffff;" vertex="1" connectable="0" parent="FGPLI17WFUnC6xqe849k-297">
          <mxGeometry x="-0.523" y="2" relative="1" as="geometry">
            <mxPoint x="-6" y="2" as="offset" />
          </mxGeometry>
        </mxCell>
      </root>
    </mxGraphModel>
  </diagram>
</mxfile>
